<svg width="123" height="67" viewBox="0 0 123 67" fill="none" xmlns="http://www.w3.org/2000/svg">
<path d="M47.8964 34.738C48.6742 33.5769 49.392 32.4242 50.2015 31.3397C50.679 30.6998 51.2832 30.1486 51.8653 29.594C52.2875 29.1917 52.7893 29.1597 53.2193 29.4196C53.6171 29.6602 53.8011 30.1159 53.7144 30.6506C53.4611 32.2129 52.9393 33.6932 52.2938 35.1289C51.5532 36.7764 50.7738 38.4065 50.0139 40.0454C49.9504 40.1821 49.9073 40.3283 49.8405 40.5086C50.0932 40.5727 50.2056 40.4226 50.33 40.3177C50.8843 39.8503 51.2223 39.2219 51.5647 38.6053C52.7622 36.4486 53.65 34.1672 54.2893 31.786C54.4873 31.0487 54.5127 30.3175 54.3551 29.5743C54.2568 29.1109 54.0694 28.73 53.5864 28.5409C53.0518 28.3317 52.7444 27.9011 52.6024 27.3635C52.1361 25.5977 51.7388 23.8185 51.6205 21.9885C51.5802 21.3637 51.5225 20.74 51.4635 19.9993C51.1415 20.337 50.8459 20.6024 50.6161 20.9159C50.5486 21.008 50.6471 21.244 50.705 21.401C50.9078 21.9515 51.1843 22.4822 51.3227 23.0473C51.4749 23.6686 51.5959 24.3101 51.4319 24.9678C51.3782 25.1828 51.4315 25.4358 51.4793 25.6623C51.5846 26.1615 51.73 26.6522 51.8358 27.1513C51.9519 27.6987 51.9124 28.177 51.3772 28.553C50.9363 28.8627 50.5737 29.2835 50.121 29.7069C49.9783 29.2823 49.8513 28.9042 49.7032 28.4633C49.4617 28.6588 49.2692 28.8147 49.0719 28.9744C49.1554 29.31 49.215 29.6177 49.3098 29.9141C49.4455 30.3385 49.3938 30.7565 49.1697 31.1073C48.6118 31.9806 48.0079 32.8246 47.3422 33.7976C46.9318 32.4922 46.7216 31.2545 46.349 30.0674C46.3066 30.0771 46.2642 30.0867 46.2218 30.0964C46.2605 30.3771 46.3071 30.6569 46.336 30.9386C46.3739 31.3082 46.391 31.6799 46.4296 32.0494C46.4783 32.5149 46.5083 32.9854 46.6024 33.4423C46.7675 34.2444 46.7486 35.0184 46.2697 35.7056C45.8008 36.3782 45.2797 37.0147 44.7309 37.7333C44.6141 37.4516 44.523 37.2318 44.4133 36.9672C44.2781 37.067 44.169 37.137 44.0718 37.2208C43.3791 37.8186 42.6069 38.2815 41.7356 38.5651C41.4522 38.6573 41.2863 38.7893 41.1933 39.0996C40.6035 41.0672 38.814 42.5572 36.7187 42.5999C36.4037 42.6063 36.2183 42.7133 36.0691 42.9933C35.618 43.84 35.0298 44.5822 34.152 45.016C32.2769 45.9425 30.4989 45.6974 28.8247 44.4963C28.6662 44.3826 28.5251 44.2447 28.3376 44.0855C28.2771 44.1631 28.2204 44.2296 28.1705 44.3008C27.7785 44.8598 27.2416 45.0266 26.6312 44.7283C26.2801 44.5567 25.9528 44.3309 25.6305 44.1069C23.3693 42.5353 21.1869 40.8614 19.1523 39.0045C17.9194 37.8794 16.7183 36.7194 15.5086 35.5691C15.2722 35.3442 15.0623 35.0917 14.7674 34.7734C14.4889 35.7619 14.2371 36.6562 13.9621 37.6326C13.7886 37.4924 13.6504 37.4217 13.5702 37.3096C12.9994 36.5113 12.437 35.7068 11.8793 34.8992C11.6844 34.617 11.6985 34.3236 11.8298 34.0044C12.016 33.5515 12.1414 33.0738 12.3264 32.6203C12.5199 32.1459 12.3299 31.8438 11.8958 31.5411C11.6982 32.2722 11.5117 32.9625 11.3005 33.7441C11.1575 33.5903 11.0473 33.4981 10.9696 33.3839C10.4719 32.653 9.9995 31.904 9.48097 31.1883C9.20882 30.8126 9.1855 30.4334 9.28653 30.0188C9.37015 29.6756 9.44059 29.3252 9.56765 28.9977C9.72691 28.5871 9.68354 28.2375 9.39619 27.9076C9.32134 27.8217 9.27018 27.7152 9.14487 27.5192C8.92871 28.282 8.74039 28.9465 8.53389 29.6751C8.34982 29.5442 8.23582 29.4776 8.13905 29.3917C7.71375 29.0141 7.30124 28.6219 6.86799 28.2538C6.65387 28.0719 6.62714 27.8577 6.67997 27.6177C6.76011 27.2535 6.85785 26.8933 6.94523 26.5307C7.06934 26.0156 7.1497 25.4856 7.32392 24.9882C7.53832 24.3761 7.22587 23.9503 6.86705 23.4903C6.79977 23.831 6.74211 24.1739 6.66342 24.5119C6.42334 25.5431 6.17464 26.5724 5.93041 27.6027C5.83319 28.0129 5.615 28.2967 5.19572 28.4462C4.74386 28.6073 4.46028 28.9561 4.3288 29.4193C4.13236 30.1113 4.08474 30.8133 4.26254 31.5129C4.67925 33.1524 5.23212 34.746 5.9096 36.2973C6.4136 37.4513 6.96598 38.5783 7.68492 39.6168C8.02662 40.1103 8.35209 40.4063 8.79314 40.6408C8.94505 40.4324 8.78451 40.2701 8.70467 40.1083C8.21784 39.1215 7.70566 38.1468 7.23536 37.1523C6.40367 35.3936 5.62752 33.6107 5.11819 31.7265C4.9705 31.1802 4.83517 30.6299 4.98024 30.0508C5.14097 29.4091 5.65167 29.104 6.27662 29.3466C6.85633 29.5717 7.30242 29.9905 7.70513 30.4541C8.98663 31.9293 9.98664 33.5993 11.0444 35.2311C11.8128 36.4166 12.6023 37.5911 13.4372 38.7304C14.3218 39.9377 15.4627 40.8635 16.8283 41.4984C18.729 42.382 20.4872 43.4904 22.0983 44.8293C23.4311 45.9367 24.6827 47.1289 25.7412 48.5041C26.8915 49.9986 27.5878 51.6846 27.8025 53.5676C28.1084 56.2504 27.7651 58.8556 26.8374 61.3778C26.3464 62.7125 25.5687 63.9015 24.7082 65.0321C24.6493 65.1095 24.5808 65.1821 24.5061 65.2441C24.4645 65.2786 24.4009 65.2867 24.2713 65.335C23.9797 64.8849 23.7792 64.381 23.539 63.8972C22.7105 62.2279 22.0344 60.4831 20.9828 58.9245C19.7554 57.1055 18.2227 55.6065 16.3816 54.4229C14.0666 52.9347 11.7329 51.4755 9.4188 49.9859C5.4313 47.4193 2.9187 43.7869 1.70371 39.2371C1.31352 37.7759 1.02174 36.2928 0.965101 34.7757C0.920493 33.5807 0.846875 32.3829 0.886156 31.1896C0.923007 30.0702 1.18836 28.9748 1.591 27.9237C2.3074 26.0534 3.04361 24.1908 3.75782 22.3197C4.24976 21.031 4.55802 19.6943 4.73992 18.328C4.75283 18.231 4.73726 18.105 4.79215 18.0427C5.30899 17.4566 5.00224 16.8115 4.92421 16.1934C4.60243 13.6445 4.69981 11.1407 5.69005 8.72938C6.26887 7.3199 7.05251 6.03954 8.07259 4.89561C9.75644 3.00734 11.814 1.72302 14.2522 1.08417C17.1224 0.332171 19.9787 0.367804 22.7564 1.50859C23.9995 2.01914 25.1372 2.72855 26.136 3.63545C26.6581 4.10953 27.1452 4.62196 27.6515 5.11352C27.7039 5.1643 27.7798 5.1908 27.8884 5.25388C29.4261 2.72356 31.6235 1.69432 34.5344 2.3587C36.2637 0.554371 38.3266 -0.205998 40.7472 0.513188C43.1531 1.22798 44.5448 2.92261 44.9695 5.41484C45.3129 5.46796 45.6386 5.52016 45.9649 5.56853C48.8757 6.00003 50.7555 8.7519 50.0955 11.6164C50.0779 11.6929 50.066 11.7718 50.0383 11.8447C49.9174 12.1636 49.9978 12.3812 50.2838 12.598C50.915 13.0763 51.4392 13.6552 51.7998 14.3771C52.1669 15.112 52.389 15.8717 52.3551 16.6986C52.3457 16.9297 52.3537 17.1615 52.3537 17.4244C52.5703 17.4469 52.7201 17.4705 52.8705 17.4768C53.5144 17.5034 53.7755 17.7475 53.886 18.386C54.0028 19.0613 54.1075 19.7419 54.2808 20.4038C54.7694 22.2699 55.5044 24.0505 56.2268 25.8349C56.7203 27.054 57.253 28.2628 57.4635 29.5735C57.6559 30.7714 57.8705 31.9641 57.6859 33.194C57.5787 33.9079 57.5719 34.6396 57.5562 35.364C57.5139 37.3136 57.0113 39.165 56.3645 40.9828C55.7078 42.8285 54.7615 44.5178 53.5537 46.0656C52.1187 47.9043 50.3425 49.34 48.3552 50.5334C45.9111 52.0013 43.4668 53.4706 41.1811 55.1798C39.2774 56.6032 37.7907 58.3938 36.7151 60.5084C36.0388 61.8383 35.4291 63.2019 34.7829 64.5472C34.6514 64.8212 34.4905 65.0811 34.2957 65.4331C34.0853 65.1973 33.9362 65.0513 33.8114 64.887C32.2725 62.8614 31.2682 60.5996 30.9018 58.0814C30.5618 55.7449 30.5816 53.4237 31.4361 51.1728C32.0155 49.6465 32.8729 48.3007 34.0207 47.135C35.7946 45.3334 37.7542 43.7665 39.9232 42.4658C40.4449 42.1529 40.9843 41.8567 41.5453 41.6242C43.2223 40.9295 44.4921 39.7534 45.5189 38.3032C46.3358 37.1495 47.0919 35.9527 47.8964 34.738ZM5.83346 12.2917C5.66693 14.5465 5.91312 16.7619 6.4821 18.9445C7.36417 22.3282 8.90569 25.4077 10.8626 28.2871C13.4305 32.0657 16.5341 35.3678 19.961 38.3761C22.076 40.2328 24.2832 41.9723 26.6254 43.5369C26.8075 43.6585 27.012 43.7467 27.3191 43.9108C27.3191 43.5071 27.3192 43.2383 27.3191 42.9696C27.3127 31.9496 27.3057 20.9297 27.3007 9.90982C27.3003 8.86892 27.3031 7.82784 27.3239 6.78722C27.3311 6.42822 27.2156 6.14886 26.979 5.88433C24.191 2.76789 20.7818 1.19708 16.5405 1.68068C12.5862 2.13156 9.55692 4.04548 7.46945 7.42572C6.56849 8.88463 6.0643 10.4884 5.83346 12.2917ZM28.2759 28.0385C28.2759 32.4 28.2668 36.7615 28.2812 41.123C28.2859 42.5411 28.8911 43.6482 30.2287 44.2208C31.6668 44.8364 33.0868 44.8306 34.3007 43.7036C34.7087 43.325 35.0336 42.8291 35.3007 42.3352C35.5726 41.8323 35.8647 41.6113 36.4824 41.632C38.2955 41.6927 39.8912 40.4187 40.2988 38.645C40.4143 38.1421 40.6547 37.8631 41.1581 37.7314C41.9271 37.5302 42.6262 37.1626 43.2304 36.6413C45.1867 34.9532 45.8745 32.8566 45.2455 30.3411C45.1423 29.9282 45.0536 29.5118 44.9429 29.0301C45.2157 29.0301 45.4104 29.046 45.6015 29.0269C46.0502 28.9821 46.5101 28.9702 46.9428 28.858C50.2148 28.0097 51.5594 24.2416 49.5884 21.4781C49.4341 21.2617 49.2718 21.0509 49.1031 20.8238C49.3552 20.6254 49.5575 20.4718 49.7537 20.3106C50.4855 19.7094 51.0525 18.9873 51.2778 18.0539C51.7068 16.2763 51.2395 14.4431 49.5595 13.2717C49.2735 13.0724 48.9765 12.889 48.6602 12.6823C49.4932 11.0991 49.5324 9.55713 48.4623 8.10723C47.3917 6.65681 45.8806 6.28015 44.1242 6.53734C44.0686 6.14828 44.0149 5.80229 43.9705 5.45511C43.8635 4.61828 43.5617 3.86193 43.0452 3.19251C41.1146 0.690107 37.5791 0.535873 35.4247 2.8897C35.0214 3.3303 34.6505 3.43192 34.0799 3.28374C31.4596 2.6033 28.8616 4.28133 28.3962 6.94687C28.2921 7.54278 28.2689 8.1589 28.2685 8.76576C28.2639 15.1507 28.2716 21.5357 28.2759 28.0385Z" fill="#0B3F56"/>
<path d="M69.5334 56.5577C70.0144 57.1549 70.4632 57.7244 70.9264 58.2822C71.2921 58.7225 71.769 58.977 72.3394 59.0483C73.1541 59.1501 73.969 59.2494 74.862 59.3593C74.9451 59.0156 75.0522 58.6886 75.1007 58.3531C75.4384 56.0145 75.76 53.6736 76.0944 51.3345C76.4452 48.88 76.8018 46.4263 77.1621 43.9731C77.2424 43.4268 77.4394 43.1908 77.7862 43.168C78.1744 43.1424 78.4681 43.3589 78.5691 43.8903C78.6668 44.4046 78.6646 44.9385 78.696 45.4645C78.7645 46.615 78.8294 47.7658 78.8894 48.9169C78.9119 49.3478 78.9154 49.7797 78.9302 50.2111C78.9698 51.3656 79.0036 52.5204 79.0533 53.6745C79.118 55.1788 79.1948 56.6826 79.2688 58.1865C79.2983 58.7877 79.3341 59.3886 79.3747 60.1298C79.8415 59.4651 80.4307 59.4328 81.0446 59.4704C81.2211 59.4812 81.4006 59.4557 81.5755 59.4753C81.9781 59.5204 82.2504 59.3153 82.4812 59.0286C82.5666 58.9225 82.6273 58.7968 82.703 58.6826C83.4099 57.6153 85.0694 57.6109 85.7692 58.6484C86.1275 59.1798 86.5745 59.3663 87.2076 59.3642C92.5008 59.3465 97.794 59.357 103.087 59.3482C103.462 59.3475 103.782 59.4223 104.058 59.6781C104.336 59.9362 104.354 60.1407 104.11 60.4375C103.874 60.7246 103.596 60.8612 103.196 60.8602C97.5486 60.8463 91.9012 60.8498 86.2538 60.8519C85.541 60.8521 84.9788 60.6509 84.7839 59.8727C84.7529 59.749 84.6549 59.6275 84.5576 59.5379C84.337 59.3349 84.1607 59.3422 83.9602 59.5934C83.7923 59.8038 83.6397 60.04 83.5406 60.2887C83.3239 60.8323 83.1835 60.9566 82.5876 60.9669C82.0959 60.9755 81.6038 60.968 81.1119 60.9719C81.0372 60.9725 80.9628 60.9966 80.8618 61.0145C80.5234 62.3283 80.1876 63.6334 79.8506 64.9382C79.7723 65.2414 79.7023 65.5475 79.6053 65.8447C79.4893 66.2001 79.2219 66.3969 78.9148 66.3873C78.5297 66.3752 78.2319 66.1556 78.1932 65.7478C78.1213 64.9888 78.1019 64.2249 78.0638 63.4628C77.9976 62.1353 77.9314 60.8078 77.8705 59.48C77.8489 59.0097 77.846 58.5385 77.829 58.068C77.7909 57.0116 77.7546 55.9551 77.7073 54.8991C77.6749 54.1764 77.6265 53.4544 77.5806 52.7324C77.5774 52.6824 77.5352 52.6349 77.4397 52.4419C77.3685 52.8029 77.3124 53.0323 77.279 53.265C76.9599 55.4875 76.6474 57.7111 76.3265 59.9334C76.2339 60.5744 75.8587 60.8989 75.2446 60.8442C74.2519 60.7559 73.2617 60.6401 72.2705 60.5355C71.038 60.4054 70.1096 59.7658 69.375 58.8063C69.0651 58.4015 68.7641 57.9899 68.4586 57.5817C68.4116 57.5189 68.3644 57.456 68.3131 57.3968C67.5895 56.5629 66.8826 56.4015 66.0961 57.4203C65.5691 58.1028 65.0183 58.7671 64.4708 59.4336C63.754 60.3064 62.8278 60.7387 61.6945 60.7339C60.5532 60.7291 59.4119 60.7382 58.2707 60.7319C53.9847 60.7081 49.6988 60.6802 45.4129 60.6554C45.217 60.6543 45.0187 60.651 44.8255 60.6775C44.1283 60.7732 43.8247 60.5969 43.5221 59.889C43.7665 59.4481 44.1142 59.2274 44.6568 59.2286C50.0876 59.2412 55.5186 59.236 60.9495 59.2374C61.1443 59.2375 61.339 59.2611 61.5338 59.2619C62.4089 59.2655 63.0572 58.8614 63.5847 58.1814C64.1489 57.4541 64.716 56.7213 65.3537 56.06C66.463 54.9096 67.9059 54.9356 69.0525 56.0624C69.2067 56.214 69.3559 56.3707 69.5334 56.5577Z" fill="#9AC8D7"/>
<path d="M70.7623 46.4857C69.7988 47.9483 68.8577 49.375 67.9163 50.8013C67.8405 50.9161 67.7689 51.0346 67.6828 51.1413C67.3212 51.5894 66.8496 51.5802 66.5212 51.0965C65.9364 50.2351 65.37 49.3612 64.7962 48.4923C63.9518 47.2137 63.1081 45.9347 62.2619 44.6572C62.2221 44.5971 62.1621 44.5503 62.0162 44.3976C62.0162 44.715 62.0162 44.9198 62.0162 45.1246C62.0162 48.287 62.0165 51.4494 62.0154 54.6119C62.0153 54.808 62.0258 55.0079 61.9924 55.1993C61.9372 55.5149 61.6702 55.6983 61.3477 55.6762C61.0428 55.6552 60.8727 55.4801 60.8394 55.1373C60.8262 55.001 60.8333 54.8626 60.8333 54.7251C60.833 50.7377 60.8331 46.7502 60.8332 42.7628C60.8332 42.645 60.8389 42.5269 60.8341 42.4093C60.8234 42.1452 60.9279 41.9528 61.1753 41.8471C61.4385 41.7348 61.6868 41.7796 61.8856 41.9716C62.0248 42.106 62.1312 42.2768 62.2401 42.4395C63.7259 44.6604 65.2093 46.8829 66.6943 49.1044C66.8129 49.2818 66.9386 49.4547 67.1171 49.7099C67.2781 49.5096 67.4168 49.3603 67.5292 49.1933C68.6044 47.596 69.673 45.9944 70.7479 44.3968C71.2523 43.6472 71.7687 42.9057 72.2744 42.1569C72.4395 41.9125 72.6308 41.7416 72.953 41.7917C73.2669 41.8404 73.4443 42.0069 73.4809 42.3262C73.4987 42.4815 73.4912 42.64 73.4913 42.797C73.4917 46.7648 73.4916 50.7326 73.4915 54.7004C73.4915 54.8182 73.4963 54.9365 73.4883 55.0539C73.4627 55.4259 73.2584 55.6456 72.9158 55.677C72.5695 55.7088 72.2582 55.4727 72.2052 55.1157C72.1795 54.9423 72.1909 54.7629 72.1909 54.5863C72.1902 51.4632 72.1904 48.34 72.1904 45.2168C72.1904 45.0116 72.1904 44.8063 72.1904 44.601C72.1436 44.5893 72.0967 44.5776 72.0499 44.5659C71.6281 45.1938 71.2064 45.8217 70.7623 46.4857Z" fill="#0B3E54"/>
<path d="M103.582 49.4341C103.582 51.2208 103.582 52.9487 103.581 54.6765C103.581 54.8334 103.59 54.9926 103.567 55.1468C103.521 55.4597 103.325 55.6393 103.022 55.6724C102.72 55.7054 102.496 55.576 102.383 55.269C102.33 55.1256 102.318 54.9645 102.304 54.8099C102.287 54.6152 102.289 54.419 102.28 54.2236C102.279 54.2061 102.264 54.1893 102.239 54.1394C101.952 54.4005 101.678 54.6645 101.389 54.9109C99.3637 56.6379 96.2252 56.0265 94.8761 53.7002C93.7257 51.7167 93.6846 49.6442 94.7664 47.6296C96.3768 44.6304 100.336 44.636 102.069 46.8544C102.102 46.8969 102.155 46.9245 102.263 47.011C102.278 46.7755 102.278 46.5905 102.305 46.4096C102.334 46.2187 102.357 46.0168 102.439 45.8463C102.562 45.5876 102.803 45.4967 103.084 45.5557C103.363 45.6144 103.541 45.7903 103.566 46.0774C103.588 46.3309 103.581 46.5872 103.581 46.8424C103.583 47.6866 103.582 48.5309 103.582 49.4341ZM96.0516 53.2385C96.2216 53.4283 96.3819 53.628 96.5632 53.8064C97.8477 55.0707 100.023 55.0691 101.353 53.5725C102.739 52.013 102.761 49.374 101.461 47.7333C100.024 45.9185 97.183 46.0579 95.986 48.0423C94.9663 49.7328 95.0092 51.4619 96.0516 53.2385Z" fill="#0B3D53"/>
<path d="M117.437 45.3056C118.746 45.218 119.878 45.5625 120.827 46.3757C121.955 47.3416 122.48 48.591 122.37 50.0837C122.344 50.4237 122.198 50.5634 121.848 50.6089C121.673 50.6315 121.494 50.6234 121.318 50.6234C119.293 50.6242 117.268 50.6239 115.243 50.6241C115.086 50.6241 114.928 50.6171 114.772 50.6288C114.419 50.6555 114.313 50.7638 114.362 51.1153C114.556 52.5156 115.157 53.6884 116.48 54.3074C117.826 54.9368 119.19 54.9175 120.452 54.0343C120.755 53.8227 120.998 53.5282 121.282 53.2873C121.475 53.1237 121.694 53.0651 121.928 53.2327C122.158 53.3971 122.17 53.6272 122.114 53.8649C122.088 53.9734 122.022 54.0864 121.942 54.1651C121.663 54.4401 121.395 54.7366 121.077 54.961C120.011 55.7149 118.847 56.0258 117.519 55.8321C116.053 55.6184 114.884 54.9781 114.025 53.7792C113.57 53.1441 113.31 52.4219 113.212 51.6557C112.997 49.9864 113.22 48.408 114.285 47.0292C115.07 46.0117 116.102 45.4374 117.437 45.3056ZM119.403 46.8883C117.829 46.1203 116.328 46.5246 115.292 47.7008C114.848 48.2051 114.551 48.7792 114.508 49.5421C115.106 49.5421 115.652 49.5421 116.198 49.5421C116.748 49.5421 117.298 49.5421 117.848 49.5421C118.399 49.5421 118.949 49.5567 119.499 49.538C120.035 49.5198 120.581 49.6216 121.132 49.4604C121.008 48.3032 120.45 47.4836 119.403 46.8883Z" fill="#0B3E54"/>
<path d="M84.5497 44.0936C83.5601 44.9665 82.9193 45.9998 82.6548 47.2553C82.2256 49.2922 82.5695 51.1702 83.9205 52.7835C84.8566 53.9011 86.113 54.4899 87.5653 54.6181C88.9365 54.7392 90.2234 54.4593 91.4056 53.7309C91.8369 53.4652 92.2148 53.5003 92.4066 53.7838C92.6345 54.1206 92.5011 54.5631 92.0603 54.8194C91.2537 55.2884 90.3774 55.5922 89.4644 55.7573C87.4083 56.1291 85.5154 55.72 83.8451 54.447C82.4943 53.4174 81.6582 52.0511 81.3306 50.384C80.91 48.2437 81.2143 46.2345 82.5199 44.4479C83.8559 42.6196 85.663 41.6787 87.9527 41.6334C89.4337 41.6041 90.7945 41.9404 92.0606 42.6957C92.3515 42.8692 92.5487 43.0766 92.5022 43.45C92.4509 43.8617 92.078 44.0995 91.69 43.9405C91.5822 43.8964 91.4894 43.8171 91.387 43.7587C89.753 42.8271 88.0356 42.5155 86.2352 43.1782C85.6538 43.3922 85.1313 43.7657 84.5497 44.0936Z" fill="#0B3D54"/>
<path d="M106.771 45.8176C107.415 45.3991 107.819 45.6 107.851 46.3054C107.86 46.5014 107.853 46.6981 107.854 46.8945C107.854 47.0665 107.854 47.2385 107.961 47.4587C108.095 47.285 108.235 47.1159 108.361 46.9368C108.939 46.1169 109.686 45.5403 110.691 45.367C111.036 45.3077 111.396 45.3014 111.746 45.3263C112.021 45.346 112.327 45.4553 112.387 45.7583C112.427 45.9628 112.37 46.2304 112.259 46.4099C112.124 46.6285 111.853 46.6294 111.616 46.5354C110.826 46.222 110.14 46.4677 109.539 46.9702C109.182 47.268 108.845 47.6151 108.587 47.9986C108.083 48.7457 107.84 49.5857 107.85 50.5005C107.865 51.9143 107.854 53.3284 107.853 54.7423C107.853 54.8993 107.863 55.0593 107.837 55.2124C107.785 55.5129 107.56 55.6817 107.25 55.6809C106.94 55.6802 106.719 55.5097 106.665 55.2089C106.642 55.0751 106.65 54.9349 106.65 54.7976C106.65 52.0285 106.648 49.2595 106.654 46.4905C106.654 46.2797 106.713 46.0689 106.771 45.8176Z" fill="#0B3E55"/>
<path d="M5.83874 12.2379C6.06428 10.4885 6.56849 8.88463 7.46945 7.42572C9.55692 4.04548 12.5862 2.13156 16.5405 1.68068C20.7818 1.19708 24.191 2.76789 26.979 5.88433C27.2156 6.14886 27.3311 6.42822 27.3239 6.78722C27.3031 7.82784 27.3003 8.86892 27.3007 9.90982C27.3057 20.9297 27.3127 31.9496 27.3191 42.9696C27.3192 43.2383 27.3191 43.5071 27.3191 43.9108C27.012 43.7467 26.8075 43.6585 26.6254 43.5369C24.2832 41.9723 22.076 40.2328 19.961 38.3761C16.5341 35.3678 13.4305 32.0657 10.8626 28.2871C8.90569 25.4077 7.36417 22.3282 6.4821 18.9445C5.91312 16.7619 5.66692 14.5465 5.83874 12.2379Z" fill="#9ECDDC"/>
<path d="M28.2759 27.9797C28.2716 21.5358 28.2639 15.1507 28.2685 8.76576C28.2689 8.1589 28.2921 7.54278 28.3962 6.94687C28.8616 4.28133 31.4596 2.6033 34.0799 3.28374C34.6505 3.43192 35.0214 3.3303 35.4247 2.8897C37.5791 0.535873 41.1146 0.690107 43.0452 3.19251C43.5617 3.86193 43.8635 4.61828 43.9705 5.45511C44.0149 5.80229 44.0686 6.14828 44.1242 6.53734C45.8806 6.28015 47.3917 6.65681 48.4623 8.10723C49.5324 9.55713 49.4932 11.0991 48.6602 12.6823C48.9765 12.889 49.2735 13.0724 49.5595 13.2717C51.2395 14.4431 51.7068 16.2763 51.2778 18.0539C51.0525 18.9873 50.4855 19.7094 49.7537 20.3106C49.5575 20.4718 49.3552 20.6254 49.1031 20.8238C49.2718 21.0509 49.4341 21.2617 49.5884 21.4781C51.5594 24.2416 50.2148 28.0097 46.9428 28.858C46.5101 28.9702 46.0502 28.9821 45.6015 29.0269C45.4104 29.046 45.2157 29.0301 44.9429 29.0301C45.0536 29.5118 45.1423 29.9282 45.2455 30.3411C45.8745 32.8566 45.1867 34.9532 43.2304 36.6413C42.6262 37.1626 41.9271 37.5302 41.1581 37.7314C40.6547 37.8631 40.4143 38.1421 40.2988 38.645C39.8912 40.4187 38.2955 41.6927 36.4824 41.632C35.8647 41.6113 35.5726 41.8323 35.3007 42.3352C35.0336 42.8291 34.7087 43.325 34.3007 43.7036C33.0868 44.8306 31.6668 44.8364 30.2287 44.2208C28.8911 43.6482 28.2859 42.5411 28.2812 41.123C28.2668 36.7615 28.2759 32.4001 28.2759 27.9797ZM28.596 12.9498C28.5993 17.0154 28.6086 21.0809 28.6 25.1464C28.5986 25.8374 28.7503 26.473 29.1083 27.0536C30.1596 28.7579 31.7143 29.5909 33.6997 29.5202C35.9092 29.4415 37.4622 28.3039 38.2623 26.2728C39.0558 24.2583 38.6539 22.3909 37.1468 20.8352C35.8431 19.4895 34.2026 19.1015 32.377 19.4286C32.1829 19.4634 31.9842 19.5771 31.7251 19.3785C31.8928 19.2854 31.9959 19.1963 32.1136 19.1681C32.9257 18.9738 33.749 18.9155 34.5709 19.0818C37.3488 19.6439 39.205 22.1826 38.9203 25.0113C38.8913 25.3004 38.8676 25.59 38.837 25.9286C39.0821 25.9559 39.273 25.9921 39.4646 25.9963C41.2721 26.0357 42.7784 26.7271 44.0155 28.041C44.209 28.2465 44.4782 28.4495 44.7434 28.5045C45.2369 28.6068 45.7633 28.6828 46.2583 28.6231C48.4778 28.3557 50.0198 26.7309 50.1681 24.5075C50.2442 23.3668 49.8823 22.3385 49.1408 21.4564C48.8827 21.1492 48.5738 20.9954 48.1515 21.1069C47.5168 21.2744 46.8752 21.3132 46.2251 21.1613C45.8221 21.067 45.4908 21.2045 45.2563 21.5571C45.1804 21.6713 45.0943 21.7798 45.0044 21.8836C44.1465 22.8742 42.6762 23.2992 41.4628 22.9013C41.3136 22.8523 41.1008 22.8401 41.1166 22.4999C41.3255 22.5447 41.5047 22.5789 41.6818 22.6219C42.9812 22.938 44.3115 22.4203 45.0321 21.3165C45.9796 19.8649 45.5518 17.9455 44.0638 16.9725C43.8949 16.862 43.7256 16.752 43.5564 16.6418C43.5752 16.6026 43.5941 16.5634 43.6129 16.5243C43.6996 16.5374 43.7959 16.5305 43.8716 16.5665C45.0708 17.1369 45.7655 18.0675 45.8579 19.4054C45.8861 19.8132 45.8623 20.2245 45.8623 20.6651C45.9483 20.7022 46.0501 20.7582 46.159 20.79C46.3093 20.8339 46.4633 20.8739 46.6184 20.891C48.4117 21.0886 50.1572 20.04 50.8113 18.377C51.4898 16.6523 50.9592 14.6969 49.5087 13.6186C48.7047 13.0209 48.4129 13.0345 47.7114 13.6423C45.774 15.3208 42.6327 14.4732 41.6459 12.3076C41.4997 11.9868 41.3847 11.6517 41.2571 11.3225C40.6466 9.74779 39.1714 8.84322 37.4783 9.0062C35.9372 9.15457 34.5946 10.4174 34.3466 12.004C34.2844 12.4022 34.3555 12.8214 34.3675 13.2309C34.3718 13.3773 34.4373 13.5486 34.198 13.5929C34.1629 13.5448 34.1074 13.5024 34.099 13.4522C33.8847 12.1734 34.0468 10.9882 34.9609 9.98616C36.9933 7.75835 40.5439 8.44452 41.5858 11.2693C41.6401 11.4165 41.6806 11.5689 41.7345 11.7163C42.3079 13.2852 43.7004 14.2305 45.3749 14.1892C47.4887 14.1371 49.0608 12.3533 48.9217 10.1649C48.796 8.18635 46.8798 6.57914 44.8937 6.77952C44.3555 6.83381 43.9783 7.05627 43.797 7.60317C43.6683 7.99172 43.4642 8.35606 43.2846 8.72682C43.2183 8.86374 43.1183 8.95523 42.9349 8.76759C43.6591 7.63647 43.9184 6.39961 43.5775 5.07084C43.2332 3.72856 42.4849 2.68901 41.2319 2.05007C39.467 1.15006 36.6616 1.35561 35.2317 3.66779C35.416 3.82872 35.6173 3.98384 35.7929 4.16395C35.9444 4.31942 36.2554 4.40635 36.102 4.78754C35.9456 4.67316 35.8134 4.594 35.7019 4.49225C33.668 2.63644 30.0085 3.18124 28.8669 6.43914C28.6501 7.05771 28.592 7.70092 28.5945 8.35382C28.6003 9.8465 28.5961 11.3392 28.596 12.9498ZM39.3109 35.5194C38.8765 34.9681 38.3431 34.5705 37.6034 34.3829C37.177 35.3577 36.5716 36.1353 35.6337 36.6119C34.5928 37.1408 33.3315 37.2067 32.7239 36.7444C32.9171 36.4988 33.1567 36.6425 33.3724 36.6679C35.125 36.8749 36.6681 35.9407 37.2309 34.3261C37.7913 32.7185 37.1546 30.94 35.7117 30.0687C35.2916 29.815 34.8605 29.7143 34.3613 29.8038C33.1351 30.0235 31.9676 29.8117 30.8915 29.1887C30.4511 28.9338 30.0511 28.6092 29.634 28.3145C29.3201 28.0927 29.0082 27.8681 28.6261 27.5952C28.6131 27.8825 28.5973 28.0712 28.5973 28.2599C28.5959 32.4634 28.596 36.6669 28.5968 40.8703C28.5969 41.0667 28.5975 41.2636 28.6116 41.4592C28.6537 42.0432 28.8477 42.576 29.2217 43.0265C30.0969 44.0805 31.2561 44.4158 32.5612 44.1978C33.8317 43.9856 34.6865 43.2172 35.0831 41.9881C35.2085 41.5994 35.2396 41.1809 35.3252 40.7785C35.3464 40.6787 35.4118 40.5883 35.4569 40.4936C35.4939 40.4937 35.531 40.4938 35.5681 40.4939C35.6316 40.7251 35.6952 40.9564 35.7667 41.2165C35.9367 41.2446 36.1084 41.286 36.2822 41.2999C37.916 41.4304 39.5148 40.3094 39.9338 38.7267C40.2331 37.5963 40.0262 36.5485 39.3109 35.5194ZM38.8647 34.656C39.8992 35.3255 40.2606 36.3925 40.4821 37.5405C41.3971 37.3671 42.1723 37.0559 42.8681 36.5566C44.7892 35.1782 45.6583 32.482 44.903 30.2563C44.0902 27.8612 41.8453 26.2721 39.3778 26.3344C38.8989 26.3465 38.5622 26.539 38.3324 26.9651C37.7963 27.9591 37.0129 28.7143 36.0317 29.27C35.8806 29.3556 35.7375 29.4554 35.5905 29.5488C35.6269 29.6072 35.6402 29.6499 35.6693 29.6714C35.7954 29.7646 35.9254 29.8526 36.0552 29.9408C37.0569 30.6214 37.6702 31.5315 37.7177 32.7687C37.7487 33.5765 38.0791 34.2029 38.8647 34.656Z" fill="#8BBBCB"/>
<path d="M28.596 12.8909C28.5961 11.3393 28.6003 9.8465 28.5945 8.35382C28.592 7.70092 28.6501 7.05771 28.8669 6.43914C30.0085 3.18124 33.668 2.63644 35.7019 4.49225C35.8134 4.594 35.9456 4.67316 36.102 4.78754C36.2554 4.40635 35.9444 4.31942 35.7929 4.16395C35.6173 3.98384 35.416 3.82872 35.2317 3.66779C36.6616 1.35561 39.467 1.15006 41.2319 2.05007C42.4849 2.68901 43.2332 3.72856 43.5775 5.07084C43.9184 6.39961 43.6591 7.63647 42.9349 8.76759C43.1183 8.95523 43.2183 8.86374 43.2846 8.72682C43.4642 8.35606 43.6683 7.99172 43.797 7.60317C43.9783 7.05627 44.3555 6.83381 44.8937 6.77952C46.8798 6.57914 48.796 8.18635 48.9217 10.1649C49.0608 12.3533 47.4887 14.1371 45.3749 14.1892C43.7004 14.2305 42.3079 13.2852 41.7345 11.7163C41.6806 11.5689 41.6401 11.4165 41.5858 11.2693C40.5439 8.44452 36.9933 7.75835 34.9609 9.98616C34.0468 10.9882 33.8847 12.1734 34.099 13.4522C34.1074 13.5024 34.1629 13.5448 34.198 13.5929C34.4373 13.5486 34.3718 13.3773 34.3675 13.2309C34.3555 12.8214 34.2844 12.4022 34.3466 12.004C34.5946 10.4174 35.9372 9.15457 37.4783 9.0062C39.1714 8.84322 40.6466 9.74779 41.2571 11.3225C41.3847 11.6517 41.4997 11.9868 41.6459 12.3076C42.6327 14.4732 45.774 15.3208 47.7114 13.6423C48.4129 13.0345 48.7047 13.0209 49.5087 13.6186C50.9592 14.6969 51.4898 16.6523 50.8113 18.377C50.1572 20.04 48.4117 21.0886 46.6184 20.891C46.4633 20.8739 46.3093 20.8339 46.159 20.79C46.0501 20.7582 45.9483 20.7022 45.8623 20.6651C45.8623 20.2245 45.8861 19.8132 45.8579 19.4054C45.7655 18.0675 45.0708 17.1369 43.8716 16.5665C43.7959 16.5305 43.6996 16.5374 43.6129 16.5243C43.5941 16.5634 43.5752 16.6026 43.5564 16.6418C43.7256 16.752 43.8949 16.862 44.0638 16.9725C45.5518 17.9455 45.9796 19.8649 45.0321 21.3165C44.3115 22.4203 42.9812 22.938 41.6818 22.6219C41.5047 22.5789 41.3255 22.5447 41.1166 22.4999C41.1008 22.8401 41.3136 22.8523 41.4628 22.9013C42.6762 23.2992 44.1465 22.8742 45.0044 21.8836C45.0943 21.7798 45.1804 21.6713 45.2563 21.5571C45.4908 21.2045 45.8221 21.067 46.2251 21.1613C46.8752 21.3132 47.5168 21.2744 48.1515 21.1069C48.5738 20.9954 48.8827 21.1492 49.1408 21.4564C49.8823 22.3385 50.2442 23.3668 50.1681 24.5075C50.0198 26.7309 48.4778 28.3557 46.2583 28.6231C45.7633 28.6828 45.2369 28.6068 44.7434 28.5045C44.4782 28.4495 44.209 28.2465 44.0155 28.041C42.7784 26.7271 41.2721 26.0357 39.4646 25.9963C39.273 25.9921 39.0821 25.9559 38.837 25.9286C38.8676 25.59 38.8913 25.3004 38.9203 25.0113C39.205 22.1826 37.3488 19.6439 34.5709 19.0818C33.749 18.9155 32.9257 18.9738 32.1136 19.1681C31.9959 19.1963 31.8928 19.2854 31.7251 19.3785C31.9842 19.5771 32.1829 19.4634 32.377 19.4286C34.2026 19.1015 35.8431 19.4895 37.1468 20.8352C38.6539 22.3909 39.0558 24.2583 38.2623 26.2728C37.4622 28.3039 35.9092 29.4415 33.6997 29.5202C31.7143 29.5909 30.1596 28.7579 29.1083 27.0536C28.7503 26.473 28.5986 25.8374 28.6 25.1464C28.6086 21.0809 28.5993 17.0154 28.596 12.8909ZM43.9259 21.1709C44.9137 20.2748 44.8353 18.4756 43.3928 17.6743C43.2054 17.5702 43.0153 17.4541 42.8641 17.3054C42.4933 16.9408 42.4694 16.4119 42.7745 15.9567C43.0577 15.5342 43.4924 15.3703 43.9544 15.5514C45.8674 16.3014 46.7663 17.8968 46.8081 19.3884C46.813 19.5612 46.8323 19.7336 46.8444 19.8982C48.1514 20.1231 49.538 19.2087 49.9942 17.8475C50.4646 16.4436 49.8609 14.8572 48.5922 14.1993C48.3272 14.3853 48.0619 14.5873 47.7816 14.7658C45.4575 16.2459 41.7697 15.3597 40.6149 12.3351C40.4751 11.969 40.3564 11.5883 40.1656 11.2494C39.5381 10.1353 38.199 9.65278 37.0093 10.0817C35.8076 10.515 35.0843 11.7225 35.276 12.9708C35.3027 13.1449 35.3374 13.3214 35.3333 13.496C35.3196 14.0926 34.9335 14.5119 34.3664 14.5672C33.7682 14.6256 33.3041 14.3341 33.1925 13.7389C32.9265 12.3213 33.024 10.9502 33.9358 9.75231C35.0558 8.28076 36.5502 7.54288 38.401 7.75767C40.356 7.98454 41.7556 9.01679 42.4575 10.9012C42.5602 11.1769 42.6449 11.4619 42.7752 11.7241C43.3817 12.9448 44.7546 13.5241 46.0627 13.125C47.3387 12.7357 48.1149 11.5318 47.973 10.1618C47.842 8.89819 46.6915 7.80191 45.4053 7.71531C44.8303 7.67659 44.8076 7.69824 44.573 8.22585C44.4057 8.60214 44.2421 8.98436 44.0294 9.33529C43.6867 9.90074 43.0714 10.0232 42.4909 9.68062C41.9689 9.37248 41.8335 8.84594 42.127 8.25474C42.1706 8.16699 42.2273 8.08587 42.2756 8.00035C43.0405 6.64571 42.9357 5.30965 42.088 4.0536C41.2323 2.78576 39.962 2.36127 38.4821 2.55077C37.7506 2.64445 37.0901 2.93278 36.5786 3.52648C36.7199 3.69471 36.8581 3.83491 36.968 3.99446C37.275 4.43989 37.2175 5.02683 36.8433 5.39853C36.4813 5.75804 35.9306 5.82435 35.4881 5.54378C35.3235 5.43942 35.182 5.29826 35.0318 5.17165C33.6702 4.02337 31.7122 4.14888 30.5176 5.46518C29.8524 6.19816 29.548 7.07305 29.5474 8.05175C29.5437 13.7679 29.5468 19.4839 29.5427 25.2C29.5424 25.6655 29.6617 26.0885 29.8835 26.493C30.7583 28.0887 32.6588 28.912 34.4697 28.4747C36.3236 28.027 37.6403 26.4108 37.6878 24.5244C37.7489 22.1003 35.7042 20.1356 33.2544 20.2789C32.8838 20.3005 32.5179 20.3947 32.1486 20.4459C31.5422 20.53 31.116 20.3377 30.8988 19.8919C30.6102 19.2997 30.8485 18.6453 31.4866 18.3836C31.7918 18.2585 32.1275 18.198 32.4549 18.1381C35.9954 17.4901 39.4591 20.0655 39.8494 23.6375C39.9 24.1006 39.912 24.568 39.9427 25.047C40.0989 25.0783 40.2314 25.1089 40.3653 25.1307C40.5205 25.156 40.6784 25.1659 40.8324 25.1959C42.2675 25.4761 43.4957 26.1525 44.4973 27.2037C44.861 27.5855 45.2707 27.7188 45.7555 27.7187C46.57 27.7187 47.3021 27.464 47.9403 26.9568C49.3277 25.8543 49.6485 23.828 48.6669 22.3985C48.5298 22.1988 48.4004 22.048 48.1013 22.0782C47.4235 22.1464 46.7405 22.1638 45.9703 22.2069C45.4481 22.9215 44.6934 23.4961 43.7388 23.7875C42.765 24.0847 41.7984 24.065 40.8489 23.689C40.4348 23.525 40.1609 23.2196 40.1178 22.7684C40.0782 22.3536 40.2219 21.9918 40.5729 21.7419C40.9263 21.4903 41.3188 21.5169 41.7054 21.637C42.5 21.8839 43.2184 21.7643 43.9259 21.1709Z" fill="#10445B"/>
<path d="M39.3361 35.5541C40.0264 36.5485 40.2331 37.5963 39.9338 38.7267C39.5148 40.3094 37.916 41.4304 36.2822 41.2999C36.1084 41.286 35.9367 41.2446 35.7667 41.2165C35.6952 40.9564 35.6316 40.7251 35.5681 40.4939C35.531 40.4938 35.4939 40.4937 35.4569 40.4936C35.4118 40.5883 35.3464 40.6787 35.3252 40.7785C35.2396 41.1809 35.2085 41.5994 35.0831 41.9881C34.6865 43.2172 33.8317 43.9856 32.5612 44.1978C31.2561 44.4158 30.0969 44.0805 29.2217 43.0265C28.8477 42.576 28.6537 42.0432 28.6116 41.4592C28.5975 41.2636 28.5969 41.0667 28.5968 40.8703C28.596 36.6669 28.5959 32.4634 28.5973 28.2599C28.5973 28.0712 28.6131 27.8825 28.6261 27.5952C29.0082 27.8681 29.3201 28.0927 29.634 28.3145C30.0511 28.6092 30.4511 28.9338 30.8915 29.1887C31.9676 29.8117 33.1351 30.0235 34.3613 29.8038C34.8605 29.7143 35.2916 29.815 35.7117 30.0687C37.1546 30.94 37.7913 32.7185 37.2309 34.3261C36.6681 35.9407 35.125 36.8749 33.3724 36.6679C33.1567 36.6425 32.9171 36.4988 32.7239 36.7444C33.3315 37.2067 34.5928 37.1408 35.6337 36.6119C36.5716 36.1353 37.177 35.3577 37.6034 34.3829C38.3431 34.5705 38.8767 34.9681 39.3361 35.5541ZM36.443 33.5925C36.6156 32.4467 36.2032 31.5575 35.2566 30.9047C35.0398 30.7552 34.8111 30.6859 34.5349 30.7321C32.866 31.0112 31.3331 30.6585 29.9305 29.7185C29.8283 29.6501 29.7062 29.6112 29.5448 29.5359C29.5448 29.779 29.545 29.9548 29.5448 30.1306C29.5416 32.4872 29.5366 34.8439 29.5358 37.2006C29.5354 38.5163 29.5462 39.8321 29.5437 41.1479C29.5425 41.7975 29.7736 42.3346 30.2742 42.7512C31.456 43.7348 33.8439 43.5502 34.2753 41.3455C34.3317 41.0572 34.3465 40.761 34.3981 40.4715C34.4816 40.0034 34.7578 39.6909 35.2168 39.562C35.6619 39.4371 36.1114 39.6192 36.3998 40.0234C36.4773 40.1319 36.5414 40.25 36.6023 40.3486C37.7485 40.3172 38.6986 39.5733 39.0146 38.4864C39.3272 37.4109 38.9419 36.2624 38.0417 35.6644C37.9495 35.7816 37.8533 35.9002 37.7609 36.0218C36.9219 37.126 35.8089 37.7675 34.4391 37.9577C33.7893 38.0479 33.1396 38.0112 32.5172 37.7906C31.9554 37.5915 31.6618 37.126 31.7373 36.618C31.8195 36.0643 32.2377 35.6956 32.8424 35.6649C33.0168 35.6561 33.1945 35.6875 33.3692 35.7114C34.8978 35.9201 36.0237 35.1747 36.443 33.5925Z" fill="#10445B"/>
<path d="M38.83 34.6319C38.0793 34.2029 37.7487 33.5765 37.7177 32.7687C37.6702 31.5315 37.0569 30.6214 36.0552 29.9408C35.9254 29.8526 35.7954 29.7646 35.6693 29.6714C35.6402 29.6499 35.6269 29.6072 35.5905 29.5488C35.7375 29.4554 35.8806 29.3556 36.0317 29.27C37.0129 28.7143 37.7963 27.9591 38.3324 26.9651C38.5622 26.539 38.8989 26.3465 39.3778 26.3344C41.8453 26.2721 44.0902 27.8612 44.903 30.2563C45.6583 32.482 44.7892 35.1782 42.8681 36.5566C42.1723 37.0559 41.3971 37.3671 40.4821 37.5405C40.2606 36.3925 39.8994 35.3256 38.83 34.6319ZM41.996 35.9974C43.8105 34.9725 44.6766 32.4141 43.9867 30.5109C43.2489 28.4751 41.2936 27.1343 39.2792 27.3205C38.9791 27.7356 38.7052 28.1685 38.3763 28.5546C38.0398 28.9497 37.6493 29.2989 37.2813 29.6693C37.3591 29.7632 37.4063 29.8259 37.4592 29.8832C38.2062 30.692 38.6376 31.6329 38.6646 32.7439C38.676 33.2124 38.8775 33.5573 39.2887 33.8031C40.1298 34.306 40.69 35.0457 41.0347 35.9554C41.082 36.0801 41.1407 36.2006 41.2153 36.3717C41.4676 36.2529 41.6942 36.1462 41.996 35.9974Z" fill="#10445B"/>
<path d="M43.8938 21.2007C43.2183 21.7642 42.5 21.8839 41.7054 21.637C41.3188 21.5169 40.9263 21.4903 40.5729 21.7419C40.2219 21.9918 40.0782 22.3536 40.1178 22.7684C40.1609 23.2196 40.4348 23.525 40.8489 23.689C41.7984 24.065 42.765 24.0847 43.7388 23.7875C44.6934 23.4961 45.4481 22.9215 45.9703 22.2069C46.7405 22.1638 47.4235 22.1464 48.1013 22.0782C48.4004 22.048 48.5298 22.1988 48.6669 22.3985C49.6485 23.828 49.3277 25.8543 47.9403 26.9568C47.3021 27.464 46.57 27.7187 45.7555 27.7187C45.2707 27.7188 44.861 27.5855 44.4973 27.2037C43.4957 26.1525 42.2675 25.4761 40.8324 25.1959C40.6784 25.1659 40.5205 25.156 40.3653 25.1307C40.2314 25.1089 40.0989 25.0783 39.9427 25.047C39.912 24.568 39.9 24.1006 39.8494 23.6375C39.4591 20.0655 35.9954 17.4901 32.4549 18.1381C32.1275 18.198 31.7918 18.2585 31.4866 18.3836C30.8485 18.6453 30.6102 19.2997 30.8988 19.8919C31.116 20.3377 31.5422 20.53 32.1486 20.4459C32.5179 20.3947 32.8838 20.3005 33.2544 20.2789C35.7042 20.1356 37.7489 22.1003 37.6878 24.5244C37.6403 26.4108 36.3236 28.027 34.4697 28.4747C32.6588 28.912 30.7583 28.0887 29.8835 26.493C29.6617 26.0885 29.5424 25.6655 29.5427 25.2C29.5468 19.4839 29.5437 13.7679 29.5474 8.05175C29.548 7.07305 29.8524 6.19816 30.5176 5.46518C31.7122 4.14888 33.6702 4.02337 35.0318 5.17165C35.182 5.29826 35.3235 5.43942 35.4881 5.54378C35.9306 5.82435 36.4813 5.75804 36.8433 5.39853C37.2175 5.02683 37.275 4.43989 36.968 3.99446C36.8581 3.83491 36.7199 3.69471 36.5786 3.52648C37.0901 2.93278 37.7506 2.64445 38.4821 2.55077C39.962 2.36127 41.2323 2.78576 42.088 4.0536C42.9357 5.30965 43.0405 6.64571 42.2756 8.00035C42.2273 8.08587 42.1706 8.16699 42.127 8.25474C41.8335 8.84594 41.9689 9.37248 42.4909 9.68062C43.0714 10.0232 43.6867 9.90074 44.0294 9.33529C44.2421 8.98436 44.4057 8.60214 44.573 8.22585C44.8076 7.69824 44.8303 7.67659 45.4053 7.71531C46.6915 7.80191 47.842 8.89819 47.973 10.1618C48.1149 11.5318 47.3387 12.7357 46.0627 13.125C44.7546 13.5241 43.3817 12.9448 42.7752 11.7241C42.6449 11.4619 42.5602 11.1769 42.4575 10.9012C41.7556 9.01679 40.356 7.98454 38.401 7.75767C36.5502 7.54288 35.0558 8.28076 33.9358 9.75231C33.024 10.9502 32.9265 12.3213 33.1925 13.7389C33.3041 14.3341 33.7682 14.6256 34.3664 14.5672C34.9335 14.5119 35.3196 14.0926 35.3333 13.496C35.3374 13.3214 35.3027 13.1449 35.276 12.9708C35.0843 11.7225 35.8076 10.515 37.0093 10.0817C38.199 9.65278 39.5381 10.1353 40.1656 11.2494C40.3564 11.5883 40.4751 11.969 40.6149 12.3351C41.7697 15.3597 45.4575 16.2459 47.7816 14.7658C48.0619 14.5873 48.3272 14.3853 48.5922 14.1993C49.8609 14.8572 50.4646 16.4436 49.9942 17.8475C49.538 19.2087 48.1514 20.1231 46.8444 19.8982C46.8323 19.7336 46.813 19.5612 46.8081 19.3884C46.7663 17.8968 45.8674 16.3014 43.9544 15.5514C43.4924 15.3703 43.0577 15.5342 42.7745 15.9567C42.4694 16.4119 42.4933 16.9408 42.8641 17.3054C43.0153 17.4541 43.2054 17.5702 43.3928 17.6743C44.8353 18.4756 44.9135 20.2747 43.8938 21.2007Z" fill="#9DCCDB"/>
<path d="M36.4332 33.6396C36.0237 35.1747 34.8978 35.9201 33.3692 35.7114C33.1945 35.6875 33.0168 35.6561 32.8424 35.6649C32.2377 35.6956 31.8195 36.0643 31.7373 36.618C31.6618 37.126 31.9554 37.5915 32.5172 37.7906C33.1396 38.0112 33.7893 38.0479 34.4391 37.9577C35.8089 37.7675 36.9219 37.126 37.7609 36.0218C37.8533 35.9002 37.9495 35.7816 38.0417 35.6644C38.9419 36.2624 39.3272 37.4109 39.0146 38.4864C38.6986 39.5733 37.7485 40.3172 36.6023 40.3486C36.5414 40.25 36.4773 40.1319 36.3998 40.0234C36.1114 39.6192 35.6619 39.4371 35.2168 39.562C34.7578 39.6909 34.4816 40.0034 34.3981 40.4715C34.3465 40.761 34.3317 41.0572 34.2753 41.3455C33.8439 43.5502 31.456 43.7348 30.2742 42.7512C29.7736 42.3346 29.5425 41.7975 29.5437 41.1479C29.5462 39.8321 29.5354 38.5163 29.5358 37.2006C29.5366 34.8439 29.5416 32.4872 29.5448 30.1306C29.545 29.9548 29.5448 29.779 29.5448 29.5359C29.7062 29.6112 29.8283 29.6501 29.9305 29.7185C31.3331 30.6585 32.866 31.0112 34.5349 30.7321C34.8111 30.6859 35.0398 30.7552 35.2566 30.9047C36.2032 31.5575 36.6156 32.4467 36.4332 33.6396Z" fill="#9DCCDB"/>
<path d="M41.9582 36.0184C41.694 36.1461 41.4676 36.2529 41.2153 36.3717C41.1407 36.2006 41.082 36.0801 41.0347 35.9554C40.69 35.0457 40.1298 34.306 39.2887 33.8031C38.8775 33.5573 38.676 33.2124 38.6646 32.7439C38.6376 31.6329 38.2062 30.692 37.4592 29.8832C37.4063 29.8259 37.3591 29.7632 37.2813 29.6693C37.6493 29.2989 38.0398 28.9497 38.3763 28.5546C38.7052 28.1685 38.9791 27.7356 39.2792 27.3205C41.2936 27.1343 43.2489 28.4751 43.9867 30.5109C44.6766 32.4141 43.8104 34.9724 41.9582 36.0184Z" fill="#9CCBDA"/>
</svg>
