<svg width="141" height="45" viewBox="0 0 141 45" fill="none" xmlns="http://www.w3.org/2000/svg">
<path d="M34.2441 22.1268C34.6286 21.5752 35.0358 21.0608 35.5249 20.6142C35.6833 20.4696 35.8454 20.3272 36.0175 20.199C36.55 19.8024 37.1516 20.2387 37.1724 20.7567C37.1797 20.9396 37.155 21.1272 37.1187 21.3076C36.9297 22.2483 36.6088 23.1492 36.2113 24.0218C35.7489 25.0366 35.2619 26.0406 34.7846 27.0489C34.6786 27.2729 34.5675 27.4947 34.4604 27.7183C34.4283 27.7853 34.4018 27.8549 34.3646 27.9425C34.4924 27.9605 34.5687 27.8986 34.6452 27.8482C34.9231 27.665 35.1347 27.4194 35.3112 27.1442C35.7929 26.393 36.1968 25.6016 36.5543 24.7874C36.9728 23.834 37.3055 22.8508 37.5932 21.8525C37.7507 21.3061 37.754 20.755 37.6326 20.2037C37.5644 19.8942 37.411 19.6485 37.0781 19.5365C36.7823 19.437 36.5933 19.2146 36.4871 18.9324C36.4122 18.7334 36.3546 18.5273 36.3008 18.3215C36.0345 17.3031 35.8418 16.271 35.728 15.2257C35.6939 14.9124 35.687 14.5962 35.6668 14.2814C35.6525 14.0588 35.6367 13.8364 35.6198 13.5874C35.5767 13.6221 35.5548 13.6358 35.5378 13.6539C35.3679 13.8359 35.2002 14.0199 35.0289 14.2006C34.8967 14.3401 34.888 14.3627 34.9865 14.5205C35.2903 15.0072 35.502 15.5293 35.5572 16.098C35.5894 16.4306 35.5776 16.7687 35.5635 17.1034C35.5572 17.2553 35.5481 17.4015 35.5875 17.5507C35.6822 17.9095 35.7705 18.2699 35.8598 18.63C35.8812 18.7166 35.9025 18.804 35.9133 18.8922C35.9342 19.0639 35.8986 19.2245 35.765 19.3454C35.416 19.6612 35.0626 19.9725 34.7104 20.285C34.7013 20.293 34.6846 20.2927 34.6514 20.3019C34.5096 20.0562 34.5162 19.7539 34.3672 19.4816C34.2032 19.5826 34.0711 19.703 33.9443 19.8239C33.9107 19.856 33.9269 19.9531 33.9408 20.0159C33.9853 20.2169 34.0433 20.4149 34.089 20.6156C34.1552 20.9063 34.0921 21.1788 33.9267 21.4215C33.5533 21.969 33.1706 22.5104 32.7909 23.0538C32.772 23.0808 32.7465 23.1034 32.7196 23.1329C32.631 23.0741 32.6373 22.9834 32.6182 22.9097C32.4321 22.1913 32.2506 21.4718 32.0673 20.7527C32.0538 20.6995 32.0409 20.6453 32.0195 20.595C31.9929 20.5323 31.9453 20.5188 31.8647 20.5707C31.877 20.6343 31.8883 20.7063 31.9051 20.7771C32.0086 21.2133 32.0656 21.6544 32.0568 22.1028C32.0558 22.1576 32.0592 22.2143 32.0464 22.2668C32.0104 22.4142 32.0417 22.5494 32.0932 22.6887C32.2443 23.0971 32.2882 23.5159 32.1886 23.9436C32.1251 24.2164 31.9899 24.4563 31.8209 24.6774C31.5398 25.045 31.2526 25.408 30.9691 25.7739C30.9402 25.8111 30.9196 25.8545 30.8952 25.895C30.876 25.8866 30.8568 25.8781 30.8376 25.8696C30.7792 25.6924 30.7209 25.5152 30.6545 25.3138C30.5251 25.4242 30.4162 25.5176 30.3067 25.6102C29.8124 26.0285 29.2521 26.3327 28.6289 26.5185C28.4804 26.5628 28.4206 26.64 28.3778 26.7784C27.9604 28.1277 27.0519 28.9562 25.6377 29.2337C25.4539 29.2698 25.2612 29.2931 25.0759 29.2797C24.9307 29.2692 24.8761 29.3312 24.8172 29.4329C24.7068 29.6237 24.6036 29.8209 24.4723 29.9975C23.7276 30.9987 22.7248 31.4414 21.4668 31.2953C20.8758 31.2267 20.3187 31.0482 19.8326 30.6997C19.6531 30.571 19.4926 30.4168 19.3109 30.2635C19.2849 30.3028 19.2527 30.337 19.2371 30.3774C19.056 30.8464 18.4811 30.9671 18.0559 30.7132C17.829 30.5778 17.611 30.4277 17.3919 30.2801C15.8621 29.2493 14.4144 28.1151 13.016 26.9198C12.5682 26.537 12.1336 26.1386 11.7035 25.7365C11.2376 25.3011 10.7825 24.8545 10.3256 24.4099C10.1718 24.2603 10.0275 24.1013 9.87738 23.9479C9.85009 23.9201 9.81575 23.8988 9.76013 23.8553C9.56315 24.5236 9.42247 25.1849 9.18511 25.8605C9.10695 25.783 9.05186 25.7352 9.00488 25.6807C8.5155 25.1129 8.11405 24.4844 7.7051 23.8611C7.61688 23.7267 7.63668 23.5934 7.69032 23.4487C7.8384 23.0492 7.97024 22.6439 8.11816 22.2444C8.17579 22.0887 8.14551 21.9683 8.03277 21.8528C7.94747 21.7654 7.87186 21.6689 7.76372 21.5438C7.60745 22.094 7.50845 22.6169 7.32274 23.1527C7.25988 23.0709 7.21704 23.0195 7.17896 22.9649C6.79964 22.4212 6.42702 21.8729 6.03944 21.3349C5.88484 21.1204 5.84281 20.9053 5.91623 20.6561C6.01723 20.3133 6.1052 19.9668 6.20586 19.6239C6.23965 19.5088 6.22893 19.4134 6.15723 19.3151C6.04884 19.1666 5.95014 19.0113 5.82183 18.8211C5.71262 19.1018 5.67322 19.3574 5.60169 19.6035C5.53128 19.8456 5.45618 20.0865 5.37439 20.3569C5.30322 20.3025 5.25711 20.2755 5.22154 20.2387C4.90912 19.9156 4.61262 19.5766 4.22473 19.3324C4.09422 19.2502 4.05389 19.1273 4.09279 18.9733C4.23244 18.4204 4.36636 17.8661 4.50216 17.3123C4.53323 17.1856 4.55542 17.0561 4.59559 16.9323C4.64301 16.786 4.62986 16.6523 4.56064 16.5164C4.46121 16.3212 4.36901 16.1224 4.23673 15.9211C4.22186 15.9818 4.20216 16.0418 4.19285 16.1033C4.04877 17.0554 3.82388 17.9895 3.5563 18.9148C3.47807 19.1853 3.33236 19.3683 3.05034 19.467C2.60336 19.6234 2.42753 19.9939 2.35567 20.4216C2.2702 20.9303 2.31102 21.4299 2.45741 21.9274C2.79361 23.0701 3.18964 24.1908 3.69506 25.2725C3.98088 25.8842 4.29319 26.4829 4.66126 27.0516C4.86113 27.3605 5.0974 27.6398 5.39456 27.8646C5.45291 27.9088 5.51866 27.9435 5.61995 28.007C5.62697 27.9092 5.64553 27.8498 5.6317 27.7988C5.60862 27.7136 5.57047 27.6309 5.5289 27.5522C4.84357 26.2537 4.18965 24.9405 3.63671 23.5816C3.36949 22.9249 3.13486 22.2567 2.95378 21.5708C2.87679 21.2791 2.86772 20.9852 2.89119 20.6917C2.93348 20.1629 3.41622 19.9046 3.8971 20.161C4.11547 20.2774 4.31776 20.4331 4.5027 20.5977C4.92434 20.9729 5.2774 21.4118 5.59168 21.8737C6.27118 22.8724 6.92906 23.8853 7.59477 24.8931C8.05908 25.596 8.52918 26.2946 9.0882 26.9306C9.63352 27.551 10.2698 28.0605 11.0185 28.4252C11.7267 28.7701 12.434 29.1148 13.1027 29.5314C14.0324 30.1104 14.8982 30.7691 15.7064 31.5031C16.2666 32.012 16.8016 32.5442 17.2894 33.1197C18.1827 34.1736 18.7383 35.3788 18.9306 36.74C19.0954 37.9066 19.0279 39.0667 18.8198 40.2224C18.7236 40.7567 18.6182 41.2886 18.4447 41.8051C18.135 42.7268 17.6515 43.5593 17.0878 44.3504C16.9636 44.5247 16.8345 44.6958 16.7031 44.8649C16.5585 45.0508 16.4746 45.0464 16.375 44.8419C16.0702 44.2166 15.7666 43.5908 15.4691 42.9621C14.9678 41.9025 14.4468 40.8557 13.7032 39.9308C12.9914 39.0453 12.1794 38.263 11.2178 37.6472C9.64243 36.6383 8.05582 35.646 6.46285 34.6639C5.41457 34.0177 4.4442 33.2822 3.60024 32.3923C2.91601 31.6709 2.33096 30.8775 1.84536 30.0133C1.02187 28.5478 0.523636 26.9761 0.250257 25.3308C0.126436 24.5856 0.0328321 23.8372 0.0276723 23.0802C0.0257111 22.7924 0.00203856 22.5048 0.000208042 22.217C-0.00711405 21.0662 0.178469 19.949 0.615789 18.8766C0.966599 18.0163 1.31856 17.1564 1.6638 16.294C2.05544 15.3156 2.41366 14.3263 2.60899 13.2885C2.65592 13.0391 2.69268 12.7875 2.7238 12.5357C2.74628 12.3538 2.78363 12.1833 2.93515 12.0589C3.00871 11.9985 3.01063 11.922 2.99959 11.8346C2.92229 11.2225 2.8232 10.6116 2.77992 9.99697C2.69985 8.85959 2.79465 7.73519 3.1314 6.63636C3.52231 5.36081 4.15898 4.21789 5.06108 3.22492C6.20033 1.97092 7.59251 1.09535 9.23797 0.62082C10.0258 0.393632 10.8323 0.280649 11.6539 0.239856C12.9248 0.176749 14.147 0.37235 15.3238 0.840748C16.34 1.24524 17.2391 1.83238 18.037 2.56724C18.3271 2.83437 18.5967 3.12282 18.8766 3.40074C18.9103 3.43427 18.9493 3.46268 19.0064 3.51072C19.0574 3.43679 19.107 3.37383 19.1471 3.30549C19.8212 2.15508 20.8286 1.49268 22.1704 1.33508C22.61 1.28345 23.0515 1.31419 23.4807 1.43157C23.631 1.47266 23.7313 1.45227 23.8454 1.33161C24.574 0.560769 25.4736 0.107872 26.5434 0.0163629C27.3789 -0.0551129 28.1746 0.106729 28.9062 0.518529C29.9168 1.08742 30.6083 1.906 30.9019 3.02666C30.9263 3.1196 30.9441 3.21425 30.963 3.30847C30.9818 3.40187 30.9983 3.49572 31.0194 3.60918C31.1306 3.61744 31.2328 3.62829 31.3353 3.63215C33.1025 3.69878 34.4552 4.97728 34.6896 6.60111C34.7616 7.10012 34.7279 7.60232 34.5669 8.08822C34.4711 8.37747 34.4741 8.32755 34.7122 8.50218C35.2194 8.87411 35.6323 9.32322 35.899 9.89151C36.0881 10.2943 36.2048 10.7169 36.2224 11.1617C36.2304 11.366 36.2242 11.5709 36.2264 11.7755C36.227 11.8222 36.2359 11.8688 36.2426 11.9309C36.2981 11.9246 36.3449 11.925 36.3884 11.9136C36.7978 11.8063 37.2554 11.981 37.309 12.5649C37.3384 12.885 37.3911 13.2053 37.4622 13.5191C37.6693 14.4326 37.9851 15.3135 38.33 16.1842C38.6949 17.1054 39.0779 18.0197 39.4367 18.9432C39.7273 19.6909 39.8858 20.47 39.9628 21.2673C40.0265 21.9262 39.9982 22.5828 39.954 23.2401C39.9112 23.8763 39.8932 24.5156 39.8135 25.1474C39.7476 25.6699 39.6257 26.1878 39.4966 26.7C39.2014 27.8717 38.7565 28.9888 38.1615 30.0464C37.669 30.9218 37.0702 31.7212 36.3747 32.4527C35.4501 33.4251 34.373 34.2019 33.2101 34.8743C31.7695 35.7074 30.3636 36.5947 28.9833 37.521C28.3817 37.9247 27.8116 38.3686 27.2943 38.8717C26.4949 39.6493 25.8049 40.5135 25.2998 41.5041C24.7898 42.5042 24.3095 43.5188 23.8163 44.527C23.7618 44.6384 23.7099 44.7511 23.6526 44.8611C23.562 45.0349 23.4611 45.0476 23.3435 44.883C23.0466 44.4674 22.7407 44.0563 22.4724 43.6231C21.7998 42.5372 21.3707 41.3593 21.1671 40.1042C21.0847 39.5962 21.0355 39.0853 21.0111 38.5699C20.9702 37.7061 21.0522 36.8575 21.2666 36.0217C21.5996 34.7237 22.233 33.5782 23.1672 32.6069C24.5584 31.1604 26.1359 29.94 27.9084 28.9704C28.2987 28.7569 28.7067 28.5741 29.1085 28.3813C29.8053 28.0471 30.3793 27.5628 30.8852 26.9934C31.596 26.1933 32.1698 25.2985 32.7495 24.4074C33.2424 23.6497 33.7403 22.8952 34.2441 22.1268ZM8.42736 21.245C8.60421 21.4576 8.7791 21.6719 8.95822 21.8828C10.9286 24.2021 13.166 26.2481 15.5795 28.1137C16.4534 28.7893 17.3516 29.4322 18.2786 30.0359C18.3625 30.0905 18.4389 30.1747 18.5886 30.1429C18.5997 30.0444 18.6218 29.9387 18.6221 29.8329C18.6249 28.9405 18.6248 28.048 18.6235 27.1556C18.6165 22.0345 18.6061 16.9134 18.6028 11.7923C18.6016 9.823 18.6164 7.85369 18.6236 5.88439C18.6254 5.40386 18.6234 4.9233 18.6284 4.4428C18.6304 4.25422 18.5741 4.09232 18.442 3.95588C18.206 3.71213 17.9789 3.45941 17.7322 3.22656C16.8286 2.37341 15.8006 1.71259 14.6063 1.31642C13.3 0.883075 11.967 0.820748 10.6103 1.02467C8.74981 1.30432 7.15224 2.08787 5.84279 3.41494C4.45453 4.82189 3.67066 6.51202 3.48699 8.46014C3.37999 9.5951 3.5005 10.7223 3.70694 11.8401C4.02751 13.5759 4.65431 15.2083 5.46228 16.7774C6.27932 18.3641 7.28247 19.8326 8.42736 21.245ZM19.6486 29.5538C19.7523 29.6828 19.8418 29.8267 19.9623 29.9384C20.6248 30.5524 21.4313 30.743 22.3094 30.6315C23.0482 30.5377 23.5931 30.1191 23.9923 29.5145C24.1214 29.319 24.2296 29.1102 24.3486 28.9082C24.5367 28.589 24.5376 28.5839 24.9042 28.6116C26.3483 28.7207 27.5245 27.676 27.7634 26.4745C27.8237 26.1709 27.9878 26.007 28.2829 25.9303C29.0392 25.7337 29.6811 25.3452 30.2142 24.7849C31.1815 23.7682 31.5573 22.5733 31.3071 21.2011C31.2358 20.81 31.1238 20.4262 31.0327 20.0385C31.0211 19.989 31.0229 19.9365 31.018 19.8791C31.1401 19.8791 31.2441 19.8751 31.3477 19.8798C31.7134 19.8964 32.0742 19.8666 32.4294 19.7779C34.0877 19.3636 35.1552 17.7668 34.8847 16.1076C34.7862 15.5032 34.5308 14.9695 34.1431 14.4937C34.0707 14.4049 33.9999 14.3148 33.9238 14.2196C34.1186 14.0707 34.2978 13.9403 34.4697 13.8011C35.834 12.6966 35.7766 10.9838 35.1752 9.95767C34.8812 9.45605 34.4511 9.09072 33.951 8.79769C33.8438 8.73493 33.7364 8.6727 33.6357 8.61407C33.6378 8.58408 33.635 8.56938 33.6402 8.5583C33.6841 8.46483 33.7325 8.37328 33.774 8.27881C34.2344 7.2302 34.1448 6.23383 33.4187 5.33435C32.7522 4.50867 31.8472 4.20672 30.7921 4.30468C30.6765 4.31542 30.561 4.32736 30.4309 4.34018C30.3873 4.0315 30.3522 3.74644 30.306 3.46313C30.0072 1.62957 28.0935 0.343363 26.2368 0.723242C25.4176 0.89086 24.7452 1.29669 24.2117 1.92337C24.0219 2.14641 23.8088 2.20897 23.5239 2.12787C23.2837 2.05951 23.0334 1.99903 22.7852 1.98844C21.4191 1.93011 20.3977 2.50194 19.7175 3.65975C19.4014 4.19773 19.3013 4.79303 19.299 5.40429C19.2938 6.85309 19.2969 8.30191 19.2972 9.75073C19.2982 14.5093 19.2998 19.2678 19.3005 24.0263C19.3006 25.4408 19.301 26.8553 19.2957 28.2698C19.294 28.7209 19.4036 29.1387 19.6486 29.5538Z" fill="#0B3F56"/>
<path d="M8.41798 21.2336C7.28246 19.8326 6.27932 18.3641 5.46228 16.7774C4.65431 15.2083 4.02751 13.5759 3.70694 11.8401C3.5005 10.7223 3.37999 9.5951 3.48699 8.46014C3.67066 6.51202 4.45453 4.82189 5.84279 3.41494C7.15224 2.08787 8.74981 1.30432 10.6103 1.02467C11.967 0.820748 13.3 0.883075 14.6063 1.31642C15.8006 1.71259 16.8286 2.37341 17.7322 3.22656C17.9789 3.45941 18.206 3.71213 18.442 3.95588C18.5741 4.09232 18.6304 4.25422 18.6284 4.4428C18.6234 4.9233 18.6254 5.40386 18.6236 5.88439C18.6164 7.85369 18.6016 9.823 18.6028 11.7923C18.6061 16.9134 18.6165 22.0345 18.6235 27.1556C18.6248 28.048 18.6249 28.9405 18.6221 29.8329C18.6218 29.9387 18.5997 30.0444 18.5886 30.1429C18.4389 30.1747 18.3625 30.0905 18.2786 30.0359C17.3516 29.4322 16.4534 28.7893 15.5795 28.1137C13.166 26.2481 10.9286 24.2021 8.95822 21.8828C8.7791 21.6719 8.60421 21.4577 8.41798 21.2336Z" fill="#9ECDDC"/>
<path d="M19.6411 29.5407C19.4036 29.1387 19.294 28.7209 19.2957 28.2698C19.301 26.8553 19.3006 25.4408 19.3005 24.0263C19.2998 19.2678 19.2982 14.5093 19.2972 9.75073C19.2969 8.30191 19.2938 6.85309 19.299 5.40429C19.3013 4.79303 19.4014 4.19773 19.7175 3.65975C20.3977 2.50194 21.4191 1.93011 22.7852 1.98844C23.0334 1.99903 23.2837 2.05951 23.5239 2.12787C23.8088 2.20897 24.0219 2.14641 24.2117 1.92337C24.7452 1.29669 25.4176 0.89086 26.2368 0.723242C28.0935 0.343363 30.0072 1.62957 30.306 3.46313C30.3522 3.74644 30.3873 4.0315 30.4309 4.34018C30.561 4.32736 30.6765 4.31542 30.7921 4.30468C31.8472 4.20672 32.7522 4.50867 33.4187 5.33435C34.1448 6.23383 34.2344 7.2302 33.774 8.27881C33.7325 8.37328 33.6841 8.46483 33.6402 8.5583C33.635 8.56938 33.6378 8.58408 33.6357 8.61407C33.7364 8.6727 33.8438 8.73493 33.951 8.79769C34.4511 9.09072 34.8812 9.45605 35.1752 9.95767C35.7766 10.9838 35.834 12.6966 34.4697 13.8011C34.2978 13.9403 34.1186 14.0707 33.9238 14.2196C33.9999 14.3148 34.0707 14.4049 34.1431 14.4937C34.5308 14.9695 34.7862 15.5032 34.8847 16.1076C35.1552 17.7668 34.0877 19.3636 32.4294 19.7779C32.0742 19.8666 31.7134 19.8964 31.3477 19.8798C31.2441 19.8751 31.1401 19.8791 31.018 19.8791C31.0229 19.9365 31.0211 19.989 31.0327 20.0385C31.1238 20.4262 31.2358 20.81 31.3071 21.2011C31.5573 22.5733 31.1815 23.7682 30.2142 24.7849C29.6811 25.3452 29.0392 25.7337 28.2829 25.9303C27.9878 26.007 27.8237 26.1709 27.7634 26.4745C27.5245 27.676 26.3483 28.7207 24.9042 28.6116C24.5376 28.5839 24.5367 28.589 24.3486 28.9082C24.2296 29.1102 24.1214 29.319 23.9923 29.5145C23.5931 30.1191 23.0482 30.5377 22.3094 30.6315C21.4313 30.743 20.6248 30.5524 19.9623 29.9384C19.8418 29.8267 19.7523 29.6828 19.6411 29.5407ZM31.666 13.264C31.6508 13.5492 31.6355 13.8345 31.6204 14.1176C32.1062 14.3019 32.5669 14.3321 33.1084 14.2171C34.2637 13.9717 35.1517 13.05 35.321 11.8777C35.5051 10.6033 34.8575 9.5723 33.9582 9.05417C33.6038 8.84994 33.4179 8.86693 33.1105 9.13728C32.4312 9.73482 31.6447 9.97004 30.7432 9.80825C29.7401 9.62822 29.0196 9.09193 28.6172 8.16368C28.5517 8.01247 28.5017 7.85473 28.4459 7.69952C28.0928 6.71721 27.1718 6.05641 26.1248 6.02206C24.6938 5.9751 23.262 7.24162 23.5608 8.94059C23.5714 9.00125 23.5815 9.06247 23.5849 9.1238C23.5882 9.18457 23.5642 9.23232 23.4932 9.23818C23.4225 9.24401 23.3908 9.20097 23.382 9.14095C23.3681 9.04589 23.357 8.95029 23.3488 8.85459C23.3187 8.50477 23.3054 8.15555 23.394 7.81047C23.7445 6.44515 25.2199 5.56177 26.6192 5.87145C27.6657 6.10305 28.3537 6.71435 28.6878 7.71277C28.7096 7.77795 28.729 7.84393 28.7521 7.90864C29.1693 9.07581 30.3256 9.77416 31.5697 9.6108C33.5441 9.35153 34.5118 7.09073 33.3002 5.53852C32.6888 4.75525 31.8697 4.40074 30.8549 4.52142C30.5258 4.56057 30.3326 4.73818 30.2178 5.03878C30.1102 5.32061 29.9736 5.59234 29.84 5.86389C29.7667 6.0129 29.7391 6.01087 29.5888 5.88397C30.1219 5.09699 30.2917 4.23995 30.0517 3.31504C29.8134 2.3966 29.2951 1.6833 28.4288 1.24297C26.9268 0.47952 24.9714 0.985368 24.1708 2.34515C24.2787 2.43723 24.3892 2.53086 24.499 2.62545C24.5988 2.71152 24.7001 2.79612 24.7961 2.88623C24.8507 2.93752 24.9191 2.99837 24.8398 3.07684C24.773 3.14291 24.7112 3.09353 24.6567 3.0485C24.6032 3.00433 24.5529 2.95647 24.5006 2.91088C23.3252 1.88597 21.529 1.95687 20.4422 3.07205C19.7939 3.73731 19.5109 4.54341 19.5107 5.45135C19.5096 9.39957 19.5125 13.3478 19.5125 17.296C19.5125 17.6532 19.5984 17.987 19.7529 18.3091C20.3884 19.6335 21.917 20.4352 23.4761 20.2184C25.5923 19.9242 26.9806 17.8883 26.4715 15.8514C26.0268 14.0723 24.2368 12.9172 22.3859 13.2168C22.2206 13.2435 22.0578 13.2847 21.893 13.3145C21.8325 13.3254 21.7576 13.338 21.7341 13.2584C21.7083 13.1706 21.7793 13.1392 21.8456 13.1119C21.8648 13.1039 21.8858 13.1003 21.9061 13.0951C22.4815 12.9498 23.0634 12.89 23.6512 13.001C24.8536 13.2279 25.7389 13.8981 26.3444 14.9235C26.7899 15.6778 26.8717 16.5042 26.7527 17.3566C26.735 17.4832 26.7178 17.6098 26.6978 17.7555C26.891 17.7741 27.0633 17.7971 27.2363 17.8061C27.5863 17.8244 27.9329 17.8597 28.273 17.9474C29.1041 18.1616 29.7868 18.6106 30.362 19.2255C30.5245 19.3993 30.7159 19.513 30.9477 19.5645C31.4198 19.6694 31.8912 19.6666 32.3604 19.5484C33.6873 19.2141 34.6179 18.1201 34.6926 16.7773C34.738 15.9611 34.4814 15.2352 33.9323 14.6142C33.8072 14.4727 33.6567 14.3773 33.4606 14.3859C33.3571 14.3905 33.2538 14.4159 33.152 14.4386C32.7861 14.5201 32.4138 14.5564 32.0498 14.4673C31.653 14.3702 31.395 14.4923 31.1589 14.8162C30.5727 15.6203 29.4766 15.9488 28.5193 15.6424C28.4536 15.6214 28.3872 15.5944 28.3312 15.556C28.305 15.5381 28.2825 15.4759 28.2949 15.4522C28.313 15.4177 28.3645 15.3787 28.401 15.3795C28.4688 15.3809 28.5368 15.4069 28.6032 15.4275C29.2036 15.6133 29.7816 15.5485 30.3258 15.2507C31.774 14.4581 31.8018 12.4179 30.3805 11.5434C30.2858 11.4852 30.1863 11.4344 30.0902 11.3782C30.0403 11.349 29.9942 11.3134 30.0294 11.2465C30.0661 11.1769 30.1207 11.2007 30.1727 11.2254C30.476 11.3693 30.7679 11.5275 31.0039 11.7725C31.3988 12.1824 31.627 12.6621 31.666 13.264ZM23.2172 30.0308C23.7486 29.6626 24.0458 29.1493 24.1689 28.5327C24.2065 28.3446 24.2226 28.1524 24.2473 27.9619C24.2566 27.8893 24.2743 27.818 24.3645 27.8193C24.456 27.8205 24.4689 27.8955 24.4765 27.9664C24.4888 28.081 24.5005 28.1957 24.5116 28.3027C25.726 28.6888 27.1766 27.8405 27.5037 26.556C27.852 25.1887 27.0066 23.864 25.8602 23.5974C25.7839 23.7398 25.7087 23.8864 25.6279 24.0299C25.0422 25.0703 23.8463 25.6156 22.6596 25.3843C22.6118 25.375 22.5584 25.3714 22.5191 25.3471C22.471 25.3174 22.3999 25.2678 22.401 25.2286C22.4035 25.1431 22.4913 25.1377 22.5623 25.1397C22.6248 25.1415 22.6871 25.153 22.7494 25.1603C23.0629 25.1969 23.3775 25.2187 23.6902 25.1636C24.7535 24.9763 25.5546 24.1434 25.713 23.0667C25.8632 22.0456 25.3043 20.992 24.3682 20.5287C24.1361 20.4137 23.8984 20.3715 23.6377 20.4217C23.2723 20.4921 22.9018 20.503 22.5309 20.4601C21.833 20.3793 21.2119 20.1154 20.6524 19.703C20.3337 19.468 20.0137 19.2348 19.693 19.0024C19.6456 18.968 19.5918 18.9422 19.5097 18.8942C19.5097 19.0077 19.5097 19.0877 19.5097 19.1678C19.5097 21.6942 19.5096 24.2205 19.5097 26.7469C19.5097 27.2618 19.503 27.7768 19.5113 28.2915C19.5262 29.2195 19.9823 29.8762 20.8434 30.2321C21.6469 30.5642 22.4415 30.5057 23.2172 30.0308ZM26.6892 23.7555C27.0626 23.9813 27.3377 24.2941 27.5326 24.6771C27.6773 24.9617 27.7629 25.2649 27.8235 25.5759C27.8374 25.6474 27.859 25.7175 27.879 25.7962C28.0145 25.7625 28.1293 25.735 28.2435 25.7054C30.7639 25.0519 31.5069 22.5296 31.0606 20.9613C30.5514 19.1717 28.9056 17.9688 27.0096 18.0378C26.7355 18.0478 26.529 18.163 26.3991 18.4043C26.2151 18.7461 25.9862 19.0562 25.7127 19.3346C25.3941 19.6589 25.0203 19.9096 24.6222 20.1287C24.5464 20.1704 24.4745 20.2188 24.3784 20.2779C24.5489 20.3878 24.6917 20.4729 24.8269 20.5683C25.4936 21.0391 25.9026 21.6592 25.9324 22.4809C25.9523 23.0322 26.1703 23.4597 26.6892 23.7555Z" fill="#96C5D5"/>
<path d="M31.6643 13.2457C31.627 12.6621 31.3988 12.1824 31.0039 11.7725C30.7679 11.5275 30.476 11.3693 30.1727 11.2254C30.1207 11.2007 30.0661 11.1769 30.0294 11.2465C29.9942 11.3134 30.0403 11.349 30.0902 11.3782C30.1863 11.4344 30.2858 11.4852 30.3805 11.5434C31.8018 12.4179 31.774 14.4581 30.3258 15.2507C29.7816 15.5485 29.2036 15.6133 28.6032 15.4275C28.5368 15.4069 28.4688 15.3809 28.401 15.3795C28.3645 15.3787 28.313 15.4177 28.2949 15.4522C28.2825 15.4759 28.305 15.5381 28.3312 15.556C28.3872 15.5944 28.4536 15.6214 28.5193 15.6424C29.4766 15.9488 30.5727 15.6203 31.1589 14.8162C31.395 14.4923 31.653 14.3702 32.0498 14.4673C32.4138 14.5564 32.7861 14.5201 33.152 14.4386C33.2538 14.4159 33.3571 14.3905 33.4606 14.3859C33.6567 14.3773 33.8072 14.4727 33.9323 14.6142C34.4814 15.2352 34.738 15.9611 34.6926 16.7773C34.6179 18.1201 33.6873 19.2141 32.3604 19.5484C31.8912 19.6666 31.4198 19.6694 30.9477 19.5645C30.7159 19.513 30.5245 19.3993 30.362 19.2255C29.7868 18.6106 29.1041 18.1616 28.273 17.9474C27.9329 17.8597 27.5863 17.8244 27.2363 17.8061C27.0633 17.7971 26.891 17.7741 26.6978 17.7555C26.7178 17.6098 26.735 17.4832 26.7527 17.3566C26.8717 16.5042 26.7899 15.6778 26.3444 14.9235C25.7389 13.8981 24.8536 13.2279 23.6512 13.001C23.0634 12.89 22.4815 12.9498 21.9061 13.0951C21.8858 13.1003 21.8648 13.1039 21.8456 13.1119C21.7793 13.1392 21.7083 13.1706 21.7341 13.2584C21.7576 13.338 21.8325 13.3254 21.893 13.3145C22.0578 13.2847 22.2206 13.2435 22.3859 13.2168C24.2368 12.9172 26.0268 14.0723 26.4715 15.8514C26.9806 17.8883 25.5923 19.9242 23.4761 20.2184C21.917 20.4352 20.3884 19.6335 19.7529 18.3091C19.5984 17.987 19.5125 17.6532 19.5125 17.296C19.5125 13.3478 19.5096 9.39957 19.5107 5.45135C19.5109 4.54341 19.7939 3.73731 20.4422 3.07205C21.529 1.95687 23.3252 1.88597 24.5006 2.91088C24.5529 2.95647 24.6032 3.00433 24.6567 3.0485C24.7112 3.09353 24.773 3.14291 24.8398 3.07684C24.9191 2.99837 24.8507 2.93752 24.7961 2.88623C24.7001 2.79612 24.5988 2.71152 24.499 2.62545C24.3892 2.53086 24.2787 2.43723 24.1708 2.34515C24.9714 0.985368 26.9268 0.47952 28.4288 1.24297C29.2951 1.6833 29.8134 2.3966 30.0517 3.31504C30.2917 4.23995 30.1219 5.09699 29.5888 5.88397C29.7391 6.01087 29.7667 6.0129 29.84 5.86389C29.9736 5.59234 30.1102 5.32061 30.2178 5.03878C30.3326 4.73818 30.5258 4.56057 30.8549 4.52142C31.8697 4.40074 32.6888 4.75525 33.3002 5.53852C34.5118 7.09073 33.5441 9.35153 31.5697 9.6108C30.3256 9.77416 29.1693 9.07581 28.7521 7.90864C28.729 7.84393 28.7096 7.77795 28.6878 7.71277C28.3537 6.71435 27.6657 6.10305 26.6192 5.87145C25.2199 5.56177 23.7445 6.44515 23.394 7.81047C23.3054 8.15555 23.3187 8.50477 23.3488 8.85459C23.357 8.95029 23.3681 9.04589 23.382 9.14095C23.3908 9.20097 23.4225 9.24401 23.4932 9.23818C23.5642 9.23232 23.5882 9.18457 23.5849 9.1238C23.5815 9.06247 23.5714 9.00125 23.5608 8.94059C23.262 7.24162 24.6938 5.9751 26.1248 6.02206C27.1718 6.05641 28.0928 6.71721 28.4459 7.69952C28.5017 7.85473 28.5517 8.01247 28.6172 8.16368C29.0196 9.09193 29.7401 9.62822 30.7432 9.80825C31.6447 9.97004 32.4312 9.73482 33.1105 9.13728C33.4179 8.86693 33.6038 8.84994 33.9582 9.05417C34.8575 9.5723 35.5051 10.6033 35.321 11.8777C35.1517 13.05 34.2637 13.9717 33.1084 14.2171C32.5669 14.3321 32.1062 14.3019 31.6204 14.1176C31.6355 13.8345 31.6508 13.5492 31.6643 13.2457ZM26.515 13.9973C26.8794 14.4413 27.1418 14.9367 27.3021 15.4854C27.4615 16.0314 27.475 16.591 27.447 17.1546C27.6799 17.1862 27.8879 17.2062 28.0925 17.2435C29.1082 17.4288 29.9788 17.8926 30.6837 18.6264C30.9355 18.8885 31.2142 18.987 31.5536 18.9893C31.6927 18.9902 31.8332 18.9793 31.971 18.9599C33.7627 18.7079 34.6443 16.6407 33.5701 15.2118C33.5255 15.1525 33.4736 15.0985 33.4273 15.0446C32.8747 15.1833 32.3345 15.2032 31.7936 15.0918C31.7337 15.1665 31.6829 15.2314 31.6304 15.2951C30.825 16.2722 29.4394 16.6594 28.2392 16.2331C28.0922 16.1809 27.9455 16.0963 27.8321 15.9918C27.6148 15.7914 27.5661 15.5316 27.654 15.2526C27.7417 14.9742 27.9281 14.7997 28.2241 14.7368C28.4263 14.6938 28.6118 14.7494 28.7997 14.8037C29.4087 14.9796 29.9401 14.8388 30.3696 14.3906C31.032 13.6993 30.8495 12.5879 30.005 12.0818C29.8917 12.0139 29.7714 11.956 29.6636 11.8808C29.3953 11.6935 29.2943 11.413 29.3747 11.1025C29.4784 10.7019 29.9242 10.3503 30.4172 10.6165C30.4967 10.6595 30.5804 10.695 30.6606 10.737C31.7523 11.3083 32.3131 12.1982 32.3274 13.4156C32.3281 13.4816 32.3274 13.5477 32.3274 13.6092C33.2385 13.7617 34.2712 13.0834 34.5787 12.152C34.899 11.1815 34.4515 10.0302 33.5829 9.60925C33.5374 9.64429 33.4872 9.68057 33.4397 9.71996C32.1312 10.8046 30.4641 10.6674 29.2941 9.94845C28.574 9.50601 28.1397 8.84838 27.8672 8.07227C27.7994 7.87916 27.7203 7.68389 27.6098 7.51224C27.1474 6.79333 26.2303 6.4979 25.4224 6.78482C24.7824 7.0121 24.0641 7.72451 24.2014 8.71169C24.2212 8.85417 24.2489 8.99742 24.2491 9.14034C24.2497 9.55087 23.9667 9.85678 23.5669 9.89357C23.1412 9.93275 22.8145 9.69633 22.7369 9.27985C22.7031 9.09811 22.6875 8.91247 22.6737 8.72787C22.6495 8.40509 22.6563 8.08295 22.7261 7.76469C23.1105 6.01181 24.9193 4.86136 26.7122 5.22793C27.8752 5.46574 28.7185 6.09477 29.1894 7.17758C29.2606 7.34127 29.3143 7.51236 29.3744 7.6806C29.6827 8.54353 30.5296 9.07668 31.4343 8.97672C32.5084 8.85806 33.2445 7.97111 33.1531 6.88458C33.069 5.88444 32.1189 5.08555 31.11 5.14626C30.9494 5.15592 30.8664 5.20344 30.8042 5.35701C30.6805 5.66229 30.542 5.96443 30.3794 6.25131C30.0842 6.77183 29.3156 6.76161 29.0128 6.24237C28.9304 6.10113 28.889 5.94534 28.9417 5.78699C28.9867 5.65169 29.0439 5.51698 29.1176 5.39477C29.3812 4.95787 29.5303 4.49036 29.4912 3.98204C29.3851 2.6025 28.4106 1.63245 27.0759 1.54676C26.4022 1.5035 25.7854 1.66325 25.2603 2.09992C25.2041 2.14665 25.154 2.20047 25.0982 2.2538C25.198 2.35656 25.292 2.43958 25.3693 2.53556C25.6169 2.84283 25.5963 3.25528 25.3264 3.53213C25.0552 3.81028 24.6413 3.84581 24.3151 3.61436C24.2304 3.55427 24.1548 3.48174 24.076 3.41381C23.4802 2.90007 22.7876 2.72951 22.025 2.91216C21.0773 3.13912 20.5314 3.77736 20.2696 4.67393C20.1762 4.99399 20.1711 5.3242 20.1714 5.65422C20.1745 9.53355 20.1784 13.4129 20.1787 17.2922C20.1787 17.5603 20.2409 17.8078 20.3604 18.0452C20.9402 19.1968 22.277 19.8068 23.6103 19.5281C25.1252 19.2114 26.143 17.6995 25.8705 16.2072C25.562 14.5177 23.8531 13.5321 22.2323 13.9063C22.1574 13.9236 22.0838 13.9469 22.0083 13.9601C21.439 14.0594 21.0018 13.6831 21.0633 13.1367C21.1025 12.7887 21.3307 12.5804 21.6569 12.4894C22.4716 12.262 23.2947 12.2157 24.1216 12.4306C25.09 12.6824 25.8584 13.232 26.515 13.9973Z" fill="#0E4259"/>
<path d="M23.2045 30.0388C22.4415 30.5057 21.6469 30.5642 20.8434 30.2321C19.9823 29.8762 19.5262 29.2195 19.5113 28.2915C19.503 27.7768 19.5097 27.2618 19.5097 26.7469C19.5096 24.2205 19.5097 21.6942 19.5097 19.1678C19.5097 19.0877 19.5097 19.0077 19.5097 18.8942C19.5918 18.9422 19.6456 18.968 19.693 19.0024C20.0137 19.2348 20.3337 19.468 20.6524 19.703C21.2119 20.1154 21.833 20.3793 22.5309 20.4601C22.9018 20.503 23.2723 20.4921 23.6377 20.4217C23.8984 20.3715 24.1361 20.4137 24.3682 20.5287C25.3043 20.992 25.8632 22.0456 25.713 23.0667C25.5546 24.1434 24.7535 24.9763 23.6902 25.1636C23.3775 25.2187 23.0629 25.1969 22.7494 25.1603C22.6871 25.153 22.6248 25.1415 22.5623 25.1397C22.4913 25.1377 22.4035 25.1431 22.401 25.2286C22.3999 25.2678 22.471 25.3174 22.5191 25.3471C22.5584 25.3714 22.6118 25.375 22.6596 25.3843C23.8463 25.6156 25.0422 25.0703 25.6279 24.0299C25.7087 23.8864 25.7839 23.7398 25.8602 23.5974C27.0066 23.864 27.852 25.1887 27.5037 26.556C27.1766 27.8405 25.726 28.6888 24.5116 28.3027C24.5005 28.1957 24.4888 28.081 24.4765 27.9664C24.4689 27.8955 24.456 27.8205 24.3645 27.8193C24.2743 27.818 24.2566 27.8893 24.2473 27.9619C24.2226 28.1524 24.2065 28.3446 24.1689 28.5327C24.0458 29.1493 23.7486 29.6626 23.2045 30.0388ZM20.8408 29.5002C20.8957 29.5301 20.9498 29.5619 21.0058 29.5898C21.8857 30.0273 23.2476 29.7727 23.5143 28.4117C23.5486 28.2371 23.5648 28.0589 23.5843 27.8818C23.6252 27.5091 23.8753 27.2327 24.2337 27.1694C24.578 27.1085 24.9046 27.2848 25.0683 27.6199C25.086 27.6563 25.1033 27.6929 25.1191 27.7258C25.8311 27.8074 26.654 27.1813 26.8597 26.4081C27.0604 25.6539 26.7132 24.6987 26.1532 24.4646C26.1478 24.4689 26.1411 24.4723 26.1372 24.4777C26.105 24.5225 26.074 24.5681 26.0413 24.6126C25.2622 25.6746 24.2048 26.1623 22.8771 26.0729C22.6635 26.0585 22.4461 26.0112 22.2441 25.9412C21.965 25.8444 21.7703 25.6502 21.7293 25.3457C21.6595 24.8271 22.0817 24.4328 22.6438 24.4885C22.7759 24.5016 22.9075 24.5195 23.0394 24.5347C23.9128 24.6352 24.7097 24.1259 24.9808 23.294C25.2482 22.4733 24.8858 21.5572 24.1349 21.1445C23.994 21.067 23.855 21.042 23.6937 21.069C23.4876 21.1035 23.2777 21.1272 23.0689 21.1326C22.0927 21.1577 21.2086 20.8799 20.409 20.3343C20.3425 20.2889 20.274 20.2461 20.1715 20.1794C20.1715 20.2954 20.1715 20.375 20.1715 20.4545C20.1715 22.6922 20.1715 24.9298 20.1715 27.1675C20.1715 27.5313 20.1732 27.8951 20.1714 28.2588C20.1689 28.7777 20.3754 29.1894 20.8408 29.5002Z" fill="#0E4259"/>
<path d="M26.6766 23.7474C26.1703 23.4597 25.9523 23.0322 25.9324 22.4809C25.9026 21.6592 25.4936 21.0391 24.8269 20.5683C24.6917 20.4729 24.5489 20.3878 24.3784 20.2779C24.4745 20.2188 24.5464 20.1704 24.6222 20.1287C25.0203 19.9096 25.3941 19.6589 25.7127 19.3346C25.9862 19.0562 26.2151 18.7461 26.3991 18.4043C26.529 18.163 26.7355 18.0478 27.0096 18.0378C28.9056 17.9688 30.5514 19.1717 31.0606 20.9613C31.5069 22.5296 30.7639 25.0519 28.2435 25.7054C28.1293 25.735 28.0145 25.7625 27.879 25.7962C27.859 25.7175 27.8374 25.6474 27.8235 25.5759C27.7629 25.2649 27.6773 24.9617 27.5326 24.6771C27.3377 24.2941 27.0626 23.9813 26.6766 23.7474ZM28.4845 18.9409C28.081 18.7694 27.6549 18.7082 27.22 18.6785C27.0672 18.6681 26.9799 18.7131 26.9046 18.8468C26.5999 19.3878 26.1931 19.8457 25.6933 20.2228C25.6556 20.2512 25.613 20.2734 25.5689 20.3008C25.6255 20.3623 25.6522 20.3934 25.6811 20.4223C26.2643 21.0062 26.5807 21.7036 26.6017 22.5237C26.6092 22.8191 26.7451 23.0288 27.0003 23.1781C27.6475 23.5569 28.0639 24.1159 28.3065 24.8082C28.326 24.8639 28.3509 24.9178 28.3729 24.9715C28.4123 24.9618 28.4332 24.9587 28.4526 24.9516C30.1016 24.3457 30.6752 22.6323 30.4849 21.497C30.2873 20.318 29.6121 19.4719 28.4845 18.9409Z" fill="#0E4259"/>
<path d="M26.5055 13.986C25.8584 13.232 25.09 12.6824 24.1216 12.4306C23.2947 12.2157 22.4716 12.262 21.6569 12.4894C21.3307 12.5804 21.1025 12.7887 21.0633 13.1367C21.0018 13.6831 21.439 14.0594 22.0083 13.9601C22.0838 13.9469 22.1574 13.9236 22.2323 13.9063C23.8531 13.5321 25.562 14.5177 25.8705 16.2072C26.143 17.6995 25.1252 19.2114 23.6103 19.5281C22.277 19.8068 20.9402 19.1968 20.3604 18.0452C20.2409 17.8078 20.1787 17.5603 20.1787 17.2922C20.1784 13.4129 20.1745 9.53355 20.1714 5.65422C20.1711 5.3242 20.1762 4.99399 20.2696 4.67393C20.5314 3.77736 21.0773 3.13912 22.025 2.91216C22.7876 2.72951 23.4802 2.90007 24.076 3.41381C24.1548 3.48174 24.2304 3.55427 24.3151 3.61436C24.6413 3.84581 25.0552 3.81028 25.3264 3.53213C25.5963 3.25528 25.6169 2.84283 25.3693 2.53556C25.292 2.43958 25.198 2.35656 25.0982 2.2538C25.154 2.20047 25.2041 2.14665 25.2603 2.09992C25.7854 1.66325 26.4022 1.5035 27.0759 1.54676C28.4106 1.63245 29.3851 2.6025 29.4912 3.98204C29.5303 4.49036 29.3812 4.95787 29.1176 5.39477C29.0439 5.51698 28.9867 5.65169 28.9417 5.78699C28.889 5.94534 28.9304 6.10113 29.0128 6.24237C29.3156 6.76161 30.0842 6.77183 30.3794 6.25131C30.542 5.96443 30.6805 5.66229 30.8042 5.35701C30.8664 5.20344 30.9494 5.15592 31.11 5.14626C32.1189 5.08555 33.069 5.88444 33.1531 6.88458C33.2445 7.97111 32.5084 8.85806 31.4343 8.97672C30.5296 9.07668 29.6827 8.54353 29.3744 7.6806C29.3143 7.51236 29.2606 7.34127 29.1894 7.17758C28.7185 6.09477 27.8752 5.46574 26.7122 5.22793C24.9193 4.86136 23.1105 6.01181 22.7261 7.76469C22.6563 8.08295 22.6495 8.40509 22.6737 8.72787C22.6875 8.91247 22.7031 9.09811 22.7369 9.27985C22.8145 9.69633 23.1412 9.93275 23.5669 9.89357C23.9667 9.85678 24.2497 9.55087 24.2491 9.14034C24.2489 8.99742 24.2212 8.85417 24.2014 8.71169C24.0641 7.72451 24.7824 7.0121 25.4224 6.78482C26.2303 6.4979 27.1474 6.79333 27.6098 7.51224C27.7203 7.68389 27.7994 7.87916 27.8672 8.07227C28.1397 8.84838 28.574 9.50601 29.2941 9.94845C30.4641 10.6674 32.1312 10.8046 33.4397 9.71996C33.4872 9.68057 33.5374 9.64429 33.5829 9.60925C34.4515 10.0302 34.899 11.1815 34.5787 12.152C34.2712 13.0834 33.2385 13.7617 32.3274 13.6092C32.3274 13.5477 32.3281 13.4816 32.3274 13.4156C32.3131 12.1982 31.7523 11.3083 30.6606 10.737C30.5804 10.695 30.4967 10.6595 30.4172 10.6165C29.9242 10.3503 29.4784 10.7019 29.3747 11.1025C29.2943 11.413 29.3953 11.6935 29.6636 11.8808C29.7714 11.956 29.8917 12.0139 30.005 12.0818C30.8495 12.5879 31.032 13.6993 30.3696 14.3906C29.9401 14.8388 29.4087 14.9796 28.7997 14.8037C28.6118 14.7494 28.4263 14.6938 28.2241 14.7368C27.9281 14.7997 27.7417 14.9742 27.654 15.2526C27.5661 15.5316 27.6148 15.7914 27.8321 15.9918C27.9455 16.0963 28.0922 16.1809 28.2392 16.2331C29.4394 16.6594 30.825 16.2722 31.6304 15.2951C31.6829 15.2314 31.7337 15.1665 31.7936 15.0918C32.3345 15.2032 32.8747 15.1833 33.4273 15.0446C33.4736 15.0985 33.5255 15.1525 33.5701 15.2118C34.6443 16.6407 33.7627 18.7079 31.971 18.9599C31.8332 18.9793 31.6927 18.9902 31.5536 18.9893C31.2142 18.987 30.9355 18.8885 30.6837 18.6264C29.9788 17.8926 29.1082 17.4288 28.0925 17.2435C27.8879 17.2062 27.6799 17.1862 27.447 17.1546C27.475 16.591 27.4615 16.0314 27.3021 15.4854C27.1418 14.9367 26.8794 14.4413 26.5055 13.986Z" fill="#9DCCDB"/>
<path d="M20.828 29.4919C20.3754 29.1894 20.1689 28.7777 20.1714 28.2588C20.1732 27.8951 20.1715 27.5313 20.1715 27.1675C20.1715 24.9298 20.1715 22.6922 20.1715 20.4545C20.1715 20.375 20.1715 20.2954 20.1715 20.1794C20.274 20.2461 20.3425 20.2889 20.409 20.3343C21.2086 20.8799 22.0927 21.1577 23.0689 21.1326C23.2777 21.1272 23.4876 21.1035 23.6937 21.069C23.855 21.042 23.994 21.067 24.1349 21.1445C24.8858 21.5572 25.2482 22.4733 24.9808 23.294C24.7097 24.1259 23.9128 24.6352 23.0394 24.5347C22.9075 24.5195 22.7759 24.5016 22.6438 24.4885C22.0817 24.4328 21.6595 24.8271 21.7293 25.3457C21.7703 25.6502 21.965 25.8444 22.2441 25.9412C22.4461 26.0112 22.6635 26.0585 22.8771 26.0729C24.2048 26.1623 25.2622 25.6746 26.0413 24.6126C26.074 24.5681 26.105 24.5225 26.1372 24.4777C26.1411 24.4723 26.1478 24.4689 26.1532 24.4646C26.7132 24.6987 27.0604 25.6539 26.8597 26.4081C26.654 27.1813 25.8311 27.8074 25.1191 27.7258C25.1033 27.6929 25.086 27.6563 25.0683 27.6199C24.9046 27.2848 24.578 27.1085 24.2337 27.1694C23.8753 27.2327 23.6252 27.5091 23.5843 27.8818C23.5648 28.0589 23.5486 28.2371 23.5143 28.4117C23.2476 29.7727 21.8857 30.0273 21.0058 29.5898C20.9498 29.5619 20.8957 29.5301 20.828 29.4919Z" fill="#9DCCDB"/>
<path d="M28.4993 18.947C29.6121 19.4719 30.2873 20.318 30.4849 21.497C30.6752 22.6323 30.1016 24.3457 28.4526 24.9516C28.4332 24.9587 28.4123 24.9618 28.3729 24.9715C28.3509 24.9178 28.326 24.8639 28.3065 24.8082C28.0639 24.1159 27.6475 23.5569 27.0003 23.1781C26.7451 23.0288 26.6092 22.8191 26.6017 22.5237C26.5807 21.7036 26.2643 21.0062 25.6811 20.4223C25.6522 20.3934 25.6255 20.3623 25.5689 20.3008C25.613 20.2734 25.6556 20.2512 25.6933 20.2228C26.1931 19.8457 26.5999 19.3878 26.9046 18.8468C26.9799 18.7131 27.0672 18.6681 27.22 18.6785C27.6549 18.7082 28.081 18.7694 28.4993 18.947Z" fill="#9DCCDB"/>
<path d="M75.8396 35.8378C76.3179 36.0807 76.8081 36.1402 77.3041 36.1943C78.1495 36.2865 78.9925 36.3989 79.8369 36.5005C79.9132 36.5097 79.9918 36.5017 80.138 36.5017C80.224 36.1509 80.3373 35.8026 80.3918 35.4463C80.6621 33.6768 80.9112 31.9045 81.1787 30.1346C81.4724 28.1918 81.7804 26.251 82.0777 24.3086C82.3729 22.3797 82.6614 20.45 82.9557 18.521C83.0088 18.1731 83.0466 17.8198 83.1426 17.482C83.3038 16.9149 83.7477 16.7228 84.288 16.9615C84.3959 17.0091 84.5232 17.0845 84.5689 17.1786C84.7036 17.4557 84.8654 17.7417 84.9013 18.0368C84.9775 18.6627 84.9821 19.2964 85.0133 19.9271C85.0715 21.1 85.13 22.273 85.1842 23.4461C85.2243 24.3122 85.2517 25.1788 85.2961 26.0447C85.3396 26.894 85.4003 27.7425 85.4475 28.5917C85.4664 28.9298 85.4681 29.2688 85.48 29.6073C85.5109 30.4885 85.5362 31.37 85.5766 32.2509C85.6277 33.3651 85.6901 34.4789 85.7503 35.5928C85.7834 36.206 85.822 36.819 85.8648 37.5435C86.0047 37.3696 86.0733 37.2849 86.1413 37.1997C86.4117 36.8611 86.7634 36.6761 87.2196 36.6789C87.7026 36.6819 88.1866 36.6616 88.6685 36.6839C89.2479 36.7107 89.651 36.4601 89.9436 36.0204C90.1772 35.6694 90.4276 35.3429 90.7917 35.0943C91.6531 34.5062 93.1702 34.5819 93.9435 35.5314C94.0574 35.6711 94.1749 35.8086 94.2819 35.9529C94.5734 36.3459 94.977 36.527 95.4771 36.5317C95.6017 36.5328 95.7264 36.5319 95.851 36.5319C102.692 36.532 109.532 36.5356 116.373 36.5245C116.869 36.5237 117.245 36.6883 117.569 37.0118C117.767 37.2089 117.82 37.4377 117.662 37.6492C117.391 38.0126 117.099 38.3137 116.539 38.3117C109.667 38.2881 102.796 38.283 95.925 38.2733C95.3964 38.2726 94.8677 38.279 94.3391 38.2719C93.5177 38.2608 93.0246 37.8597 92.8606 37.2295C92.8283 37.1051 92.7701 36.9756 92.6867 36.8763C92.3104 36.4283 92.0343 36.4375 91.6383 36.8712C91.4205 37.1097 91.2672 37.3668 91.1749 37.6729C91.0104 38.2184 90.6796 38.443 90.0828 38.4488C89.4752 38.4548 88.8674 38.4502 88.2597 38.4502C88.1071 38.4502 87.9546 38.4502 87.7816 38.4502C87.5345 39.3493 87.2964 40.2141 87.0593 41.079C86.7867 42.0734 86.5162 43.0683 86.2417 44.0622C86.1986 44.2181 86.1556 44.3773 86.084 44.5224C85.895 44.9051 85.6724 45.0263 85.2317 44.9954C84.8451 44.9684 84.5091 44.8243 84.429 44.4406C84.3366 43.998 84.2886 43.5431 84.269 43.0917C84.2127 41.7988 84.1835 40.5049 84.1375 39.2115C84.1135 38.5365 84.0762 37.8619 84.0457 37.187C83.9828 35.7932 83.9253 34.3991 83.8563 33.0055C83.8019 31.9061 83.7362 30.8072 83.6703 29.7084C83.6354 29.1264 83.5892 28.5451 83.5484 27.967C83.3848 27.9085 83.349 27.9928 83.3312 28.1097C83.2033 28.951 83.075 29.7922 82.9441 30.6331C82.7365 31.9662 82.5221 33.2983 82.3198 34.6321C82.2076 35.3719 82.1157 36.1144 82.0112 36.8552C81.9846 37.0441 81.9591 37.2348 81.9082 37.4185C81.7455 38.0048 81.3752 38.2801 80.7254 38.269C80.2297 38.2605 79.7336 38.2254 79.2399 38.181C78.4852 38.1133 77.7328 38.0237 76.9787 37.9497C75.2241 37.7776 73.9011 36.9577 72.9036 35.596C72.4449 34.9697 71.9047 34.3966 71.3944 33.8048C71.3076 33.704 71.1917 33.6221 71.0784 33.5459C70.462 33.1309 69.8836 33.1459 69.3569 33.6584C68.8596 34.1422 68.41 34.6708 67.9536 35.1909C67.5071 35.6998 67.1044 36.245 66.6365 36.735C65.8 37.6109 64.7787 38.1369 63.488 38.1291C61.4623 38.1169 59.4366 38.1286 57.4109 38.1253C52.3472 38.1171 47.2835 38.1055 42.2198 38.0977C41.8776 38.0971 41.5354 38.1212 41.1931 38.1245C40.7787 38.1285 40.1655 37.722 40.0304 37.3632C39.9523 37.1559 40.033 36.9839 40.1794 36.8388C40.543 36.4784 40.976 36.2872 41.5175 36.3636C41.7156 36.3916 41.917 36.4118 42.1169 36.4119C49.0822 36.4143 56.0475 36.412 63.0128 36.4161C64.029 36.4166 64.8531 36.0574 65.4867 35.3093C66.1281 34.5521 66.7515 33.7808 67.409 33.0365C67.6966 32.7109 68.0217 32.4025 68.3776 32.1455C69.6275 31.2429 71.0148 31.3068 72.2459 32.1848C72.887 32.6421 73.3625 33.2455 73.856 33.8326C74.2138 34.2583 74.5519 34.7009 74.9371 35.1031C75.1937 35.371 75.5177 35.581 75.8396 35.8378Z" fill="#9CCAD9"/>
<path d="M76.6823 19.9738C76.6823 19.4219 76.6823 18.9143 76.6823 18.4066C76.6509 18.3987 76.6196 18.3907 76.5882 18.3827C76.3643 18.6946 76.1368 19.0042 75.9172 19.3188C74.9212 20.7452 73.9273 22.1731 72.9328 23.6005C72.2898 24.5234 71.6204 25.431 71.0122 26.374C70.4924 27.1799 69.8309 27.1009 69.3311 26.3649C67.7647 24.0589 66.1547 21.7793 64.5625 19.4889C64.3007 19.1123 64.0433 18.7329 63.7838 18.3548C63.7499 18.3622 63.7159 18.3696 63.682 18.3771C63.6777 18.5447 63.6698 18.7123 63.6697 18.88C63.669 22.8898 63.6701 26.8997 63.6666 30.9096C63.6664 31.1137 63.6568 31.3246 63.603 31.5204C63.4996 31.8964 63.2409 32.0384 62.7858 32.0125C62.4257 31.9919 62.1745 31.7906 62.1108 31.451C62.0865 31.3219 62.095 31.1866 62.095 31.0541C62.0944 26.086 62.0945 21.1179 62.0945 16.1498C62.0945 16.1056 62.0936 16.0613 62.0948 16.0171C62.1054 15.6215 62.2819 15.3483 62.5939 15.2439C62.9584 15.1219 63.3362 15.2216 63.601 15.5265C63.7291 15.674 63.8365 15.838 63.9488 15.9973C65.9196 18.7935 67.8896 21.5903 69.8605 24.3865C69.9617 24.5301 70.0699 24.6694 70.2084 24.8559C70.3321 24.7007 70.428 24.5913 70.5113 24.474C72.5612 21.587 74.6097 18.6992 76.6589 15.8118C76.7369 15.7018 76.8117 15.5883 76.9017 15.4874C77.157 15.2014 77.5022 15.117 77.8673 15.2415C78.1797 15.348 78.3383 15.5871 78.3496 15.9735C78.3531 16.0913 78.3505 16.2094 78.3505 16.3273C78.3505 21.1775 78.3505 26.0276 78.3505 30.8778C78.3505 31.0105 78.3551 31.1434 78.3488 31.2758C78.3258 31.7548 78.0507 32.009 77.5556 32.0136C77.0171 32.0186 76.7189 31.7749 76.685 31.2957C76.6756 31.1636 76.6823 31.0304 76.6823 30.8977C76.6822 27.2712 76.6823 23.6446 76.6823 19.9738Z" fill="#0B3E54"/>
<path d="M107.459 20.3426C109.608 19.1096 111.729 19.1032 113.811 20.3858C114.258 20.6611 114.601 21.0867 114.99 21.4455C115.064 21.5141 115.127 21.5944 115.282 21.657C115.283 21.4009 115.285 21.1448 115.286 20.8887C115.287 20.7413 115.28 20.5935 115.291 20.4467C115.322 20.0152 115.586 19.7561 116.02 19.7224C116.384 19.6941 116.748 19.9479 116.843 20.3142C116.876 20.4406 116.876 20.5768 116.876 20.7085C116.877 24.142 116.877 27.5755 116.876 31.009C116.876 31.1411 116.877 31.2759 116.851 31.4047C116.76 31.8558 116.483 32.0444 115.983 32.012C115.549 31.9839 115.299 31.7292 115.289 31.2803C115.279 30.854 115.287 30.4273 115.287 29.8972C115.089 30.1084 114.951 30.2502 114.82 30.3971C113.757 31.5851 112.414 32.2316 110.76 32.2776C109.165 32.322 107.792 31.7993 106.661 30.7563C105.857 30.0161 105.294 29.1176 104.992 28.0854C104.44 26.2023 104.512 24.3588 105.416 22.5796C105.877 21.6741 106.54 20.9218 107.459 20.3426ZM114.183 29.3144C114.4 28.9762 114.652 28.6531 114.83 28.297C115.408 27.1405 115.527 25.9178 115.267 24.6747C115.02 23.4883 114.46 22.4528 113.427 21.6907C111.459 20.2395 108.415 20.6137 107.011 22.9174C106.025 24.5353 105.95 26.2569 106.609 27.9901C107.267 29.7198 108.821 30.9485 110.953 30.8685C112.266 30.8192 113.315 30.3158 114.183 29.3144Z" fill="#0B3E54"/>
<path d="M134.636 32.2007C131.784 31.8727 129.608 29.8391 129.221 27.1855C129.018 25.7902 129.087 24.414 129.65 23.103C130.533 21.0491 132.105 19.7071 134.473 19.4758C137.714 19.1591 140.36 21.1126 140.897 24.0872C140.952 24.3907 140.986 24.6997 140.999 25.0073C141.022 25.5798 140.705 25.8898 140.105 25.8925C139.108 25.8969 138.111 25.8938 137.115 25.8938C135.152 25.8938 133.19 25.8938 131.227 25.8938C131.059 25.8938 130.891 25.8938 130.726 25.8938C130.546 26.2752 130.685 26.6142 130.751 26.9284C131.184 29.0188 132.478 30.4279 134.78 30.8105C136.366 31.074 137.812 30.7097 139.02 29.6548C139.156 29.5359 139.254 29.3785 139.389 29.2585C139.5 29.1605 139.629 29.062 139.769 29.0161C140.071 28.9168 140.39 29.0287 140.555 29.2561C140.709 29.4694 140.674 29.8463 140.484 30.0804C140.022 30.6488 139.444 31.0926 138.805 31.4653C137.53 32.2084 136.144 32.4146 134.636 32.2007ZM138.046 21.9365C136.965 21.1145 135.757 20.7006 134.362 20.9537C132.515 21.2888 131.223 22.6102 130.84 24.3227C130.828 24.3766 130.845 24.4363 130.848 24.488C131.234 24.5938 138.87 24.5986 139.326 24.4853C139.326 23.4719 138.823 22.6773 138.046 21.9365Z" fill="#0B3E55"/>
<path d="M93.4565 15.6767C94.5638 15.2384 95.6761 15.0198 96.8482 15.0017C98.2237 14.9805 99.5533 15.1522 100.814 15.6745C101.353 15.8979 101.872 16.1752 102.37 16.4738C102.733 16.6915 102.802 16.9516 102.699 17.2675C102.528 17.7915 102.029 17.9843 101.518 17.7257C101.038 17.4829 100.571 17.2109 100.073 17.0076C98.9998 16.5691 97.8638 16.381 96.6991 16.4503C95.0701 16.5472 93.6007 17.0568 92.3546 18.0848C90.9501 19.2434 90.2151 20.731 89.9471 22.4492C89.7194 23.9095 89.8838 25.3279 90.4868 26.6922C91.4579 28.8888 93.2081 30.2088 95.6541 30.6725C97.6415 31.0492 99.5166 30.6986 101.251 29.6996C101.318 29.6613 101.384 29.6221 101.452 29.5867C101.94 29.334 102.354 29.4189 102.626 29.8266C102.874 30.1976 102.773 30.5973 102.285 30.8688C101.763 31.1587 101.221 31.4282 100.658 31.6336C99.2759 32.1374 97.8367 32.3719 96.3543 32.2588C94.4541 32.1138 92.7502 31.4852 91.2976 30.3023C89.9915 29.2387 89.0545 27.936 88.5789 26.3603C88.2035 25.1168 88.0987 23.8524 88.2467 22.5593C88.3901 21.3064 88.7691 20.1384 89.455 19.0622C90.4141 17.5574 91.7229 16.4161 93.4565 15.6767Z" fill="#0B3E55"/>
<path d="M126.293 19.4762C126.816 19.4402 127.299 19.4058 127.752 19.624C128.144 19.8124 128.29 20.105 128.178 20.4974C128.07 20.873 127.723 21.067 127.318 20.9737C127.167 20.9389 127.018 20.8945 126.869 20.8526C126.196 20.6638 125.566 20.7908 124.988 21.1249C123.627 21.9115 122.799 23.0715 122.449 24.5305C122.351 24.9424 122.326 25.3769 122.323 25.8014C122.309 27.5409 122.317 29.2804 122.317 31.02C122.317 31.1379 122.322 31.2561 122.315 31.3737C122.289 31.7995 122.055 32.0048 121.594 32.0128C121.14 32.0207 120.838 31.778 120.806 31.3736C120.798 31.2709 120.803 31.1673 120.803 31.0641C120.803 27.644 120.803 24.224 120.803 20.8039C120.803 20.7007 120.798 20.5971 120.806 20.4944C120.841 20.0481 121.142 19.7903 121.603 19.8065C122.04 19.8218 122.308 20.083 122.315 20.5172C122.323 21.0183 122.316 21.5196 122.318 22.0208C122.319 22.1307 122.333 22.2405 122.379 22.3686C123.226 20.854 124.391 19.7468 126.293 19.4762Z" fill="#0B3E55"/>
</svg>
