<svg width="1123" height="38" viewBox="0 0 1123 38" fill="none" xmlns="http://www.w3.org/2000/svg">
<path d="M3 16.5C1.61929 16.5 0.5 17.6193 0.5 19C0.5 20.3807 1.61929 21.5 3 21.5L3 16.5ZM1121.77 20.7678C1122.74 19.7915 1122.74 18.2085 1121.77 17.2322L1105.86 1.32233C1104.88 0.34602 1103.3 0.34602 1102.32 1.32233C1101.35 2.29864 1101.35 3.88155 1102.32 4.85786L1116.46 19L1102.32 33.1421C1101.35 34.1184 1101.35 35.7014 1102.32 36.6777C1103.3 37.654 1104.88 37.654 1105.86 36.6777L1121.77 20.7678ZM3 21.5L1120 21.5V16.5L3 16.5L3 21.5Z" fill="#073F56"/>
</svg>
