<svg width="38" height="1520" viewBox="0 0 38 1520" fill="none" xmlns="http://www.w3.org/2000/svg">
<path d="M21.5 3C21.5 1.61929 20.3807 0.5 19 0.5C17.6193 0.5 16.5 1.61929 16.5 3L21.5 3ZM17.2322 1518.77C18.2085 1519.74 19.7914 1519.74 20.7677 1518.77L36.6776 1502.86C37.6539 1501.88 37.6539 1500.3 36.6776 1499.32C35.7013 1498.35 34.1184 1498.35 33.1421 1499.32L18.9999 1513.46L4.8578 1499.32C3.88149 1498.35 2.29858 1498.35 1.32227 1499.32C0.345954 1500.3 0.345954 1501.88 1.32226 1502.86L17.2322 1518.77ZM16.5 3L16.4999 1517L21.4999 1517L21.5 3L16.5 3Z" fill="#073F56"/>
</svg>
